<mxfile host="app.diagrams.net" agent="Mozilla/5.0 (X11; Linux x86_64) AppleWebKit/537.36 (KHTML, like Gecko) Chrome/132.0.0.0 Safari/537.36" version="26.0.11">
  <diagram name="Página-1" id="lDmwvkBU8yqaxsutOc9F">
    <mxGraphModel grid="1" page="1" gridSize="10" guides="1" tooltips="1" connect="1" arrows="1" fold="1" pageScale="1" pageWidth="827" pageHeight="1169" math="0" shadow="0">
      <root>
        <mxCell id="0" />
        <mxCell id="1" parent="0" />
        <mxCell id="7zDn4ZH_GtPBGwhXdW92-3" value="" style="edgeStyle=orthogonalEdgeStyle;rounded=0;orthogonalLoop=1;jettySize=auto;html=1;" edge="1" parent="1" source="7zDn4ZH_GtPBGwhXdW92-1">
          <mxGeometry relative="1" as="geometry">
            <mxPoint x="80" y="170" as="targetPoint" />
          </mxGeometry>
        </mxCell>
        <mxCell id="7zDn4ZH_GtPBGwhXdW92-1" value="VALOR INSERIDO&amp;nbsp;&lt;div&gt;A&amp;nbsp;&lt;span style=&quot;background-color: transparent; color: light-dark(rgb(0, 0, 0), rgb(255, 255, 255));&quot;&gt;&amp;nbsp;&lt;/span&gt;&lt;/div&gt;" style="rounded=0;whiteSpace=wrap;html=1;" vertex="1" parent="1">
          <mxGeometry x="20" y="30" width="120" height="60" as="geometry" />
        </mxCell>
        <mxCell id="7zDn4ZH_GtPBGwhXdW92-6" value="" style="edgeStyle=orthogonalEdgeStyle;rounded=0;orthogonalLoop=1;jettySize=auto;html=1;" edge="1" parent="1" source="7zDn4ZH_GtPBGwhXdW92-4" target="7zDn4ZH_GtPBGwhXdW92-5">
          <mxGeometry relative="1" as="geometry" />
        </mxCell>
        <mxCell id="7zDn4ZH_GtPBGwhXdW92-4" value="VALOR INSERIDO&lt;div&gt;B&lt;/div&gt;" style="rounded=0;whiteSpace=wrap;html=1;" vertex="1" parent="1">
          <mxGeometry x="20" y="170" width="120" height="60" as="geometry" />
        </mxCell>
        <mxCell id="7zDn4ZH_GtPBGwhXdW92-8" value="" style="edgeStyle=orthogonalEdgeStyle;rounded=0;orthogonalLoop=1;jettySize=auto;html=1;" edge="1" parent="1" source="7zDn4ZH_GtPBGwhXdW92-5" target="7zDn4ZH_GtPBGwhXdW92-7">
          <mxGeometry relative="1" as="geometry" />
        </mxCell>
        <mxCell id="7zDn4ZH_GtPBGwhXdW92-5" value="CALCULAR MEDIA&amp;nbsp;" style="whiteSpace=wrap;html=1;rounded=0;" vertex="1" parent="1">
          <mxGeometry x="220" y="170" width="120" height="60" as="geometry" />
        </mxCell>
        <mxCell id="7zDn4ZH_GtPBGwhXdW92-7" value="EXIBIR MÉDIA&amp;nbsp;" style="whiteSpace=wrap;html=1;rounded=0;" vertex="1" parent="1">
          <mxGeometry x="420" y="170" width="120" height="60" as="geometry" />
        </mxCell>
        <mxCell id="7zDn4ZH_GtPBGwhXdW92-9" value="" style="edgeStyle=orthogonalEdgeStyle;rounded=0;orthogonalLoop=1;jettySize=auto;html=1;" edge="1" parent="1" source="7zDn4ZH_GtPBGwhXdW92-10">
          <mxGeometry relative="1" as="geometry">
            <mxPoint x="90" y="510" as="targetPoint" />
          </mxGeometry>
        </mxCell>
        <mxCell id="7zDn4ZH_GtPBGwhXdW92-10" value="VALOR INSERIDO&amp;nbsp;&lt;div&gt;A&amp;nbsp;&lt;span style=&quot;background-color: transparent; color: light-dark(rgb(0, 0, 0), rgb(255, 255, 255));&quot;&gt;&amp;nbsp;&lt;/span&gt;&lt;/div&gt;" style="rounded=0;whiteSpace=wrap;html=1;" vertex="1" parent="1">
          <mxGeometry x="30" y="370" width="120" height="60" as="geometry" />
        </mxCell>
        <mxCell id="7zDn4ZH_GtPBGwhXdW92-11" value="" style="edgeStyle=orthogonalEdgeStyle;rounded=0;orthogonalLoop=1;jettySize=auto;html=1;" edge="1" parent="1" source="7zDn4ZH_GtPBGwhXdW92-12" target="7zDn4ZH_GtPBGwhXdW92-14">
          <mxGeometry relative="1" as="geometry" />
        </mxCell>
        <mxCell id="7zDn4ZH_GtPBGwhXdW92-12" value="VALOR INSERIDO&lt;div&gt;B&lt;/div&gt;" style="rounded=0;whiteSpace=wrap;html=1;" vertex="1" parent="1">
          <mxGeometry x="30" y="510" width="120" height="60" as="geometry" />
        </mxCell>
        <mxCell id="7zDn4ZH_GtPBGwhXdW92-17" value="" style="edgeStyle=orthogonalEdgeStyle;rounded=0;orthogonalLoop=1;jettySize=auto;html=1;" edge="1" parent="1" source="7zDn4ZH_GtPBGwhXdW92-14" target="7zDn4ZH_GtPBGwhXdW92-16">
          <mxGeometry relative="1" as="geometry" />
        </mxCell>
        <mxCell id="7zDn4ZH_GtPBGwhXdW92-14" value="CALCULAR MEDIA&amp;nbsp;" style="whiteSpace=wrap;html=1;rounded=0;" vertex="1" parent="1">
          <mxGeometry x="210" y="510" width="120" height="60" as="geometry" />
        </mxCell>
        <mxCell id="7zDn4ZH_GtPBGwhXdW92-19" value="" style="edgeStyle=orthogonalEdgeStyle;rounded=0;orthogonalLoop=1;jettySize=auto;html=1;" edge="1" parent="1" source="7zDn4ZH_GtPBGwhXdW92-16" target="7zDn4ZH_GtPBGwhXdW92-18">
          <mxGeometry relative="1" as="geometry" />
        </mxCell>
        <mxCell id="7zDn4ZH_GtPBGwhXdW92-26" value="" style="edgeStyle=orthogonalEdgeStyle;rounded=0;orthogonalLoop=1;jettySize=auto;html=1;" edge="1" parent="1" source="7zDn4ZH_GtPBGwhXdW92-16" target="7zDn4ZH_GtPBGwhXdW92-25">
          <mxGeometry relative="1" as="geometry" />
        </mxCell>
        <mxCell id="7zDn4ZH_GtPBGwhXdW92-16" value="=&amp;gt;5" style="rhombus;whiteSpace=wrap;html=1;rounded=0;" vertex="1" parent="1">
          <mxGeometry x="250" y="640" width="80" height="80" as="geometry" />
        </mxCell>
        <mxCell id="kke_oH9LQtOZnyXwMWGX-54" style="edgeStyle=orthogonalEdgeStyle;rounded=0;orthogonalLoop=1;jettySize=auto;html=1;exitX=0.5;exitY=1;exitDx=0;exitDy=0;" edge="1" parent="1" source="7zDn4ZH_GtPBGwhXdW92-18" target="7zDn4ZH_GtPBGwhXdW92-121">
          <mxGeometry relative="1" as="geometry" />
        </mxCell>
        <mxCell id="7zDn4ZH_GtPBGwhXdW92-18" value="&lt;span style=&quot;color: rgb(29, 33, 37); font-family: Barlow, sans-serif; font-size: 15px; text-align: left; background-color: rgb(255, 255, 255);&quot;&gt;#partiuestágio&lt;/span&gt;" style="whiteSpace=wrap;html=1;rounded=0;" vertex="1" parent="1">
          <mxGeometry x="440" y="650" width="190" height="60" as="geometry" />
        </mxCell>
        <mxCell id="7zDn4ZH_GtPBGwhXdW92-21" value="SIM" style="text;strokeColor=none;fillColor=none;align=left;verticalAlign=middle;spacingLeft=4;spacingRight=4;overflow=hidden;points=[[0,0.5],[1,0.5]];portConstraint=eastwest;rotatable=0;whiteSpace=wrap;html=1;" vertex="1" parent="1">
          <mxGeometry x="365" y="650" width="80" height="30" as="geometry" />
        </mxCell>
        <mxCell id="7zDn4ZH_GtPBGwhXdW92-25" value="&lt;span style=&quot;color: rgb(29, 33, 37); font-family: Barlow, sans-serif; font-size: 15px; text-align: left; background-color: rgb(255, 255, 255);&quot;&gt;#partiutentardenovo&lt;/span&gt;" style="whiteSpace=wrap;html=1;rounded=0;" vertex="1" parent="1">
          <mxGeometry x="215" y="820" width="150" height="60" as="geometry" />
        </mxCell>
        <mxCell id="7zDn4ZH_GtPBGwhXdW92-27" value="NÃO" style="text;html=1;align=center;verticalAlign=middle;whiteSpace=wrap;rounded=0;" vertex="1" parent="1">
          <mxGeometry x="280" y="750" width="60" height="30" as="geometry" />
        </mxCell>
        <mxCell id="7zDn4ZH_GtPBGwhXdW92-28" value="" style="edgeStyle=orthogonalEdgeStyle;rounded=0;orthogonalLoop=1;jettySize=auto;html=1;" edge="1" parent="1" source="7zDn4ZH_GtPBGwhXdW92-29">
          <mxGeometry relative="1" as="geometry">
            <mxPoint x="80" y="1110" as="targetPoint" />
          </mxGeometry>
        </mxCell>
        <mxCell id="7zDn4ZH_GtPBGwhXdW92-29" value="INSERIDO MASC OU FEM" style="rounded=0;whiteSpace=wrap;html=1;" vertex="1" parent="1">
          <mxGeometry x="20" y="970" width="120" height="60" as="geometry" />
        </mxCell>
        <mxCell id="7zDn4ZH_GtPBGwhXdW92-44" value="" style="edgeStyle=orthogonalEdgeStyle;rounded=0;orthogonalLoop=1;jettySize=auto;html=1;" edge="1" parent="1" source="7zDn4ZH_GtPBGwhXdW92-31" target="7zDn4ZH_GtPBGwhXdW92-43">
          <mxGeometry relative="1" as="geometry" />
        </mxCell>
        <mxCell id="7zDn4ZH_GtPBGwhXdW92-31" value="INSERIDO&amp;nbsp; IDADE" style="rounded=0;whiteSpace=wrap;html=1;" vertex="1" parent="1">
          <mxGeometry x="20" y="1110" width="120" height="60" as="geometry" />
        </mxCell>
        <mxCell id="7zDn4ZH_GtPBGwhXdW92-48" value="" style="edgeStyle=orthogonalEdgeStyle;rounded=0;orthogonalLoop=1;jettySize=auto;html=1;" edge="1" parent="1" source="7zDn4ZH_GtPBGwhXdW92-43" target="7zDn4ZH_GtPBGwhXdW92-47">
          <mxGeometry relative="1" as="geometry" />
        </mxCell>
        <mxCell id="7zDn4ZH_GtPBGwhXdW92-51" value="" style="edgeStyle=orthogonalEdgeStyle;rounded=0;orthogonalLoop=1;jettySize=auto;html=1;" edge="1" parent="1" source="7zDn4ZH_GtPBGwhXdW92-43">
          <mxGeometry relative="1" as="geometry">
            <mxPoint x="315" y="1272.5" as="targetPoint" />
          </mxGeometry>
        </mxCell>
        <mxCell id="7zDn4ZH_GtPBGwhXdW92-43" value="HOMEM OU&amp;nbsp;&lt;div&gt;MULHER?&lt;/div&gt;" style="rhombus;whiteSpace=wrap;html=1;rounded=0;" vertex="1" parent="1">
          <mxGeometry x="250" y="1087.5" width="130" height="105" as="geometry" />
        </mxCell>
        <mxCell id="7zDn4ZH_GtPBGwhXdW92-54" value="" style="edgeStyle=orthogonalEdgeStyle;rounded=0;orthogonalLoop=1;jettySize=auto;html=1;" edge="1" parent="1" source="7zDn4ZH_GtPBGwhXdW92-47" target="7zDn4ZH_GtPBGwhXdW92-53">
          <mxGeometry relative="1" as="geometry" />
        </mxCell>
        <mxCell id="7zDn4ZH_GtPBGwhXdW92-57" value="" style="edgeStyle=orthogonalEdgeStyle;rounded=0;orthogonalLoop=1;jettySize=auto;html=1;" edge="1" parent="1" source="7zDn4ZH_GtPBGwhXdW92-47" target="7zDn4ZH_GtPBGwhXdW92-56">
          <mxGeometry relative="1" as="geometry" />
        </mxCell>
        <mxCell id="7zDn4ZH_GtPBGwhXdW92-47" value="IDADE &amp;lt;=18" style="rhombus;whiteSpace=wrap;html=1;rounded=0;" vertex="1" parent="1">
          <mxGeometry x="485" y="1100" width="80" height="80" as="geometry" />
        </mxCell>
        <mxCell id="7zDn4ZH_GtPBGwhXdW92-49" value="HOMEM" style="text;html=1;align=center;verticalAlign=middle;whiteSpace=wrap;rounded=0;" vertex="1" parent="1">
          <mxGeometry x="400" y="1110" width="60" height="30" as="geometry" />
        </mxCell>
        <mxCell id="7zDn4ZH_GtPBGwhXdW92-52" value="MULHER" style="text;html=1;align=center;verticalAlign=middle;whiteSpace=wrap;rounded=0;" vertex="1" parent="1">
          <mxGeometry x="320" y="1210" width="60" height="30" as="geometry" />
        </mxCell>
        <mxCell id="kke_oH9LQtOZnyXwMWGX-56" style="edgeStyle=orthogonalEdgeStyle;rounded=0;orthogonalLoop=1;jettySize=auto;html=1;exitX=0.5;exitY=1;exitDx=0;exitDy=0;" edge="1" parent="1" source="7zDn4ZH_GtPBGwhXdW92-53" target="7zDn4ZH_GtPBGwhXdW92-115">
          <mxGeometry relative="1" as="geometry" />
        </mxCell>
        <mxCell id="7zDn4ZH_GtPBGwhXdW92-53" value="&lt;span style=&quot;color: rgb(29, 33, 37); font-family: Barlow, sans-serif; font-size: 15px; text-align: left; background-color: rgb(255, 255, 255);&quot;&gt;Você é homem jovem&lt;/span&gt;" style="whiteSpace=wrap;html=1;rounded=0;" vertex="1" parent="1">
          <mxGeometry x="660" y="1110" width="120" height="60" as="geometry" />
        </mxCell>
        <mxCell id="7zDn4ZH_GtPBGwhXdW92-55" value="SIM" style="text;html=1;align=center;verticalAlign=middle;whiteSpace=wrap;rounded=0;" vertex="1" parent="1">
          <mxGeometry x="580" y="1110" width="60" height="30" as="geometry" />
        </mxCell>
        <mxCell id="7zDn4ZH_GtPBGwhXdW92-56" value="&lt;span style=&quot;color: rgb(29, 33, 37); font-family: Barlow, sans-serif; font-size: 15px; text-align: left; background-color: rgb(255, 255, 255);&quot;&gt;Você é homem maior de idade&lt;/span&gt;" style="rounded=0;whiteSpace=wrap;html=1;" vertex="1" parent="1">
          <mxGeometry x="465" y="1270" width="120" height="60" as="geometry" />
        </mxCell>
        <mxCell id="7zDn4ZH_GtPBGwhXdW92-58" value="NÃO" style="text;html=1;align=center;verticalAlign=middle;whiteSpace=wrap;rounded=0;" vertex="1" parent="1">
          <mxGeometry x="530" y="1199" width="60" height="30" as="geometry" />
        </mxCell>
        <mxCell id="7zDn4ZH_GtPBGwhXdW92-67" value="" style="edgeStyle=orthogonalEdgeStyle;rounded=0;orthogonalLoop=1;jettySize=auto;html=1;" edge="1" parent="1" source="7zDn4ZH_GtPBGwhXdW92-69" target="7zDn4ZH_GtPBGwhXdW92-70">
          <mxGeometry relative="1" as="geometry" />
        </mxCell>
        <mxCell id="7zDn4ZH_GtPBGwhXdW92-68" value="" style="edgeStyle=orthogonalEdgeStyle;rounded=0;orthogonalLoop=1;jettySize=auto;html=1;" edge="1" parent="1" source="7zDn4ZH_GtPBGwhXdW92-69" target="7zDn4ZH_GtPBGwhXdW92-72">
          <mxGeometry relative="1" as="geometry" />
        </mxCell>
        <mxCell id="7zDn4ZH_GtPBGwhXdW92-69" value="IDADE =&amp;gt;18" style="rhombus;whiteSpace=wrap;html=1;rounded=0;" vertex="1" parent="1">
          <mxGeometry x="275" y="1270" width="80" height="80" as="geometry" />
        </mxCell>
        <mxCell id="kke_oH9LQtOZnyXwMWGX-55" style="edgeStyle=orthogonalEdgeStyle;rounded=0;orthogonalLoop=1;jettySize=auto;html=1;exitX=0.5;exitY=1;exitDx=0;exitDy=0;entryX=0;entryY=0.5;entryDx=0;entryDy=0;" edge="1" parent="1" source="7zDn4ZH_GtPBGwhXdW92-70" target="7zDn4ZH_GtPBGwhXdW92-106">
          <mxGeometry relative="1" as="geometry">
            <Array as="points">
              <mxPoint x="140" y="1340" />
              <mxPoint x="140" y="1540" />
              <mxPoint x="295" y="1540" />
            </Array>
          </mxGeometry>
        </mxCell>
        <mxCell id="7zDn4ZH_GtPBGwhXdW92-70" value="&lt;span style=&quot;color: rgb(29, 33, 37); font-family: Barlow, sans-serif; font-size: 15px; text-align: left; background-color: rgb(255, 255, 255);&quot;&gt;Você é mulher jovem&lt;/span&gt;" style="whiteSpace=wrap;html=1;rounded=0;" vertex="1" parent="1">
          <mxGeometry x="70" y="1280" width="120" height="60" as="geometry" />
        </mxCell>
        <mxCell id="7zDn4ZH_GtPBGwhXdW92-71" value="SIM" style="text;html=1;align=center;verticalAlign=middle;whiteSpace=wrap;rounded=0;" vertex="1" parent="1">
          <mxGeometry x="205" y="1280" width="60" height="30" as="geometry" />
        </mxCell>
        <mxCell id="7zDn4ZH_GtPBGwhXdW92-107" value="" style="edgeStyle=orthogonalEdgeStyle;rounded=0;orthogonalLoop=1;jettySize=auto;html=1;" edge="1" parent="1" source="7zDn4ZH_GtPBGwhXdW92-72" target="7zDn4ZH_GtPBGwhXdW92-106">
          <mxGeometry relative="1" as="geometry" />
        </mxCell>
        <mxCell id="7zDn4ZH_GtPBGwhXdW92-72" value="&lt;span style=&quot;color: rgb(29, 33, 37); font-family: Barlow, sans-serif; font-size: 15px; text-align: left; background-color: rgb(255, 255, 255);&quot;&gt;Você é mulher maior de idade&lt;/span&gt;" style="rounded=0;whiteSpace=wrap;html=1;" vertex="1" parent="1">
          <mxGeometry x="255" y="1460" width="120" height="60" as="geometry" />
        </mxCell>
        <mxCell id="7zDn4ZH_GtPBGwhXdW92-73" value="NÃO" style="text;html=1;align=center;verticalAlign=middle;whiteSpace=wrap;rounded=0;" vertex="1" parent="1">
          <mxGeometry x="315" y="1400" width="60" height="30" as="geometry" />
        </mxCell>
        <mxCell id="7zDn4ZH_GtPBGwhXdW92-77" value="" style="edgeStyle=orthogonalEdgeStyle;rounded=0;orthogonalLoop=1;jettySize=auto;html=1;" edge="1" parent="1" source="7zDn4ZH_GtPBGwhXdW92-75">
          <mxGeometry relative="1" as="geometry">
            <mxPoint x="110" y="1720" as="targetPoint" />
          </mxGeometry>
        </mxCell>
        <mxCell id="7zDn4ZH_GtPBGwhXdW92-75" value="USUÁRIO INSERE UF" style="rounded=0;whiteSpace=wrap;html=1;" vertex="1" parent="1">
          <mxGeometry x="50" y="1600" width="120" height="60" as="geometry" />
        </mxCell>
        <mxCell id="7zDn4ZH_GtPBGwhXdW92-79" value="" style="edgeStyle=orthogonalEdgeStyle;rounded=0;orthogonalLoop=1;jettySize=auto;html=1;" edge="1" parent="1" target="7zDn4ZH_GtPBGwhXdW92-78">
          <mxGeometry relative="1" as="geometry">
            <mxPoint x="110" y="1800" as="sourcePoint" />
          </mxGeometry>
        </mxCell>
        <mxCell id="kke_oH9LQtOZnyXwMWGX-247" value="" style="edgeStyle=orthogonalEdgeStyle;rounded=0;orthogonalLoop=1;jettySize=auto;html=1;" edge="1" parent="1" source="7zDn4ZH_GtPBGwhXdW92-78" target="kke_oH9LQtOZnyXwMWGX-246">
          <mxGeometry relative="1" as="geometry" />
        </mxCell>
        <mxCell id="7zDn4ZH_GtPBGwhXdW92-78" value="QTD FILHOS&amp;nbsp; &amp;nbsp; &amp;nbsp; &amp;nbsp;&amp;nbsp;&lt;div&gt;DE 0-15&lt;/div&gt;" style="whiteSpace=wrap;html=1;rounded=0;" vertex="1" parent="1">
          <mxGeometry x="50" y="1880" width="120" height="60" as="geometry" />
        </mxCell>
        <mxCell id="7zDn4ZH_GtPBGwhXdW92-80" value="SIM" style="text;html=1;align=center;verticalAlign=middle;whiteSpace=wrap;rounded=0;" vertex="1" parent="1">
          <mxGeometry x="57.5" y="1830" width="60" height="30" as="geometry" />
        </mxCell>
        <mxCell id="7zDn4ZH_GtPBGwhXdW92-88" value="" style="edgeStyle=orthogonalEdgeStyle;rounded=0;orthogonalLoop=1;jettySize=auto;html=1;" edge="1" parent="1" target="7zDn4ZH_GtPBGwhXdW92-87">
          <mxGeometry relative="1" as="geometry">
            <mxPoint x="323" y="2050" as="sourcePoint" />
          </mxGeometry>
        </mxCell>
        <mxCell id="kke_oH9LQtOZnyXwMWGX-49" style="edgeStyle=orthogonalEdgeStyle;rounded=0;orthogonalLoop=1;jettySize=auto;html=1;exitX=1;exitY=0.5;exitDx=0;exitDy=0;entryX=0.5;entryY=0;entryDx=0;entryDy=0;" edge="1" parent="1" source="7zDn4ZH_GtPBGwhXdW92-87" target="7zDn4ZH_GtPBGwhXdW92-157">
          <mxGeometry relative="1" as="geometry" />
        </mxCell>
        <mxCell id="7zDn4ZH_GtPBGwhXdW92-87" value="EXIBIR&amp;nbsp;&lt;span style=&quot;color: rgb(29, 33, 37); font-family: Barlow, sans-serif; font-size: 15px; text-align: left; background-color: rgb(255, 255, 255);&quot;&gt;#nãotemtv&amp;nbsp; #nãoteminternet #nãotemvideogame&lt;/span&gt;" style="whiteSpace=wrap;html=1;rounded=0;" vertex="1" parent="1">
          <mxGeometry x="438" y="2020" width="355" height="60" as="geometry" />
        </mxCell>
        <mxCell id="7zDn4ZH_GtPBGwhXdW92-94" value="" style="edgeStyle=orthogonalEdgeStyle;rounded=0;orthogonalLoop=1;jettySize=auto;html=1;" edge="1" parent="1" source="7zDn4ZH_GtPBGwhXdW92-91" target="7zDn4ZH_GtPBGwhXdW92-93">
          <mxGeometry relative="1" as="geometry" />
        </mxCell>
        <mxCell id="7zDn4ZH_GtPBGwhXdW92-91" value="=3" style="rhombus;whiteSpace=wrap;html=1;" vertex="1" parent="1">
          <mxGeometry x="238" y="2010" width="80" height="80" as="geometry" />
        </mxCell>
        <mxCell id="7zDn4ZH_GtPBGwhXdW92-92" value="SIM" style="text;html=1;align=center;verticalAlign=middle;whiteSpace=wrap;rounded=0;" vertex="1" parent="1">
          <mxGeometry x="343" y="2020" width="60" height="30" as="geometry" />
        </mxCell>
        <mxCell id="7zDn4ZH_GtPBGwhXdW92-97" value="" style="edgeStyle=orthogonalEdgeStyle;rounded=0;orthogonalLoop=1;jettySize=auto;html=1;" edge="1" parent="1" target="7zDn4ZH_GtPBGwhXdW92-96">
          <mxGeometry relative="1" as="geometry">
            <mxPoint x="323" y="2370" as="sourcePoint" />
          </mxGeometry>
        </mxCell>
        <mxCell id="7zDn4ZH_GtPBGwhXdW92-100" value="" style="edgeStyle=orthogonalEdgeStyle;rounded=0;orthogonalLoop=1;jettySize=auto;html=1;" edge="1" parent="1" source="7zDn4ZH_GtPBGwhXdW92-93" target="7zDn4ZH_GtPBGwhXdW92-99">
          <mxGeometry relative="1" as="geometry" />
        </mxCell>
        <mxCell id="7zDn4ZH_GtPBGwhXdW92-93" value="=2" style="rhombus;whiteSpace=wrap;html=1;" vertex="1" parent="1">
          <mxGeometry x="238" y="2170" width="80" height="80" as="geometry" />
        </mxCell>
        <mxCell id="7zDn4ZH_GtPBGwhXdW92-95" value="NÃO" style="text;html=1;align=center;verticalAlign=middle;whiteSpace=wrap;rounded=0;" vertex="1" parent="1">
          <mxGeometry x="283" y="2110" width="60" height="30" as="geometry" />
        </mxCell>
        <mxCell id="kke_oH9LQtOZnyXwMWGX-51" style="edgeStyle=orthogonalEdgeStyle;rounded=0;orthogonalLoop=1;jettySize=auto;html=1;exitX=1;exitY=0.5;exitDx=0;exitDy=0;" edge="1" parent="1" source="7zDn4ZH_GtPBGwhXdW92-96">
          <mxGeometry relative="1" as="geometry">
            <mxPoint x="883" y="2370" as="targetPoint" />
          </mxGeometry>
        </mxCell>
        <mxCell id="7zDn4ZH_GtPBGwhXdW92-96" value="&lt;span style=&quot;color: rgb(29, 33, 37); font-family: Barlow, sans-serif; font-size: 15px; text-align: left; background-color: rgb(255, 255, 255);&quot;&gt;#nãotemvideogame&lt;/span&gt;" style="whiteSpace=wrap;html=1;" vertex="1" parent="1">
          <mxGeometry x="443" y="2340" width="345" height="60" as="geometry" />
        </mxCell>
        <mxCell id="7zDn4ZH_GtPBGwhXdW92-98" value="SIM" style="text;html=1;align=center;verticalAlign=middle;whiteSpace=wrap;rounded=0;" vertex="1" parent="1">
          <mxGeometry x="348" y="2330" width="60" height="30" as="geometry" />
        </mxCell>
        <mxCell id="7zDn4ZH_GtPBGwhXdW92-150" style="edgeStyle=orthogonalEdgeStyle;rounded=0;orthogonalLoop=1;jettySize=auto;html=1;exitX=0.5;exitY=1;exitDx=0;exitDy=0;entryX=0.5;entryY=0;entryDx=0;entryDy=0;" edge="1" parent="1" source="7zDn4ZH_GtPBGwhXdW92-99" target="7zDn4ZH_GtPBGwhXdW92-146">
          <mxGeometry relative="1" as="geometry" />
        </mxCell>
        <mxCell id="7zDn4ZH_GtPBGwhXdW92-99" value="=1" style="rhombus;whiteSpace=wrap;html=1;" vertex="1" parent="1">
          <mxGeometry x="238" y="2330" width="80" height="80" as="geometry" />
        </mxCell>
        <mxCell id="7zDn4ZH_GtPBGwhXdW92-102" value="" style="edgeStyle=orthogonalEdgeStyle;rounded=0;orthogonalLoop=1;jettySize=auto;html=1;" edge="1" parent="1" target="7zDn4ZH_GtPBGwhXdW92-103">
          <mxGeometry relative="1" as="geometry">
            <mxPoint x="318" y="2210" as="sourcePoint" />
          </mxGeometry>
        </mxCell>
        <mxCell id="kke_oH9LQtOZnyXwMWGX-50" style="edgeStyle=orthogonalEdgeStyle;rounded=0;orthogonalLoop=1;jettySize=auto;html=1;exitX=1;exitY=0.5;exitDx=0;exitDy=0;entryX=0.5;entryY=0;entryDx=0;entryDy=0;" edge="1" parent="1" source="7zDn4ZH_GtPBGwhXdW92-103" target="7zDn4ZH_GtPBGwhXdW92-157">
          <mxGeometry relative="1" as="geometry" />
        </mxCell>
        <mxCell id="7zDn4ZH_GtPBGwhXdW92-103" value="&lt;span style=&quot;color: rgb(29, 33, 37); font-family: Barlow, sans-serif; font-size: 15px; text-align: left; background-color: rgb(255, 255, 255);&quot;&gt;#nãotemtv&lt;/span&gt;" style="whiteSpace=wrap;html=1;" vertex="1" parent="1">
          <mxGeometry x="438" y="2180" width="345" height="60" as="geometry" />
        </mxCell>
        <mxCell id="7zDn4ZH_GtPBGwhXdW92-104" value="SIM" style="text;html=1;align=center;verticalAlign=middle;whiteSpace=wrap;rounded=0;" vertex="1" parent="1">
          <mxGeometry x="343" y="2170" width="60" height="30" as="geometry" />
        </mxCell>
        <mxCell id="7zDn4ZH_GtPBGwhXdW92-106" value="FIM" style="ellipse;whiteSpace=wrap;html=1;rounded=0;fillColor=#f8cecc;strokeColor=#b85450;" vertex="1" parent="1">
          <mxGeometry x="295" y="1550" width="35" height="30" as="geometry" />
        </mxCell>
        <mxCell id="7zDn4ZH_GtPBGwhXdW92-114" value="" style="edgeStyle=orthogonalEdgeStyle;rounded=0;orthogonalLoop=1;jettySize=auto;html=1;" edge="1" parent="1" target="7zDn4ZH_GtPBGwhXdW92-115">
          <mxGeometry relative="1" as="geometry">
            <mxPoint x="525" y="1330" as="sourcePoint" />
          </mxGeometry>
        </mxCell>
        <mxCell id="7zDn4ZH_GtPBGwhXdW92-115" value="FIM" style="ellipse;whiteSpace=wrap;html=1;rounded=0;fillColor=#f8cecc;strokeColor=#b85450;" vertex="1" parent="1">
          <mxGeometry x="702.5" y="1280" width="35" height="30" as="geometry" />
        </mxCell>
        <mxCell id="7zDn4ZH_GtPBGwhXdW92-120" value="" style="edgeStyle=orthogonalEdgeStyle;rounded=0;orthogonalLoop=1;jettySize=auto;html=1;" edge="1" parent="1" target="7zDn4ZH_GtPBGwhXdW92-121">
          <mxGeometry relative="1" as="geometry">
            <mxPoint x="285" y="880" as="sourcePoint" />
          </mxGeometry>
        </mxCell>
        <mxCell id="7zDn4ZH_GtPBGwhXdW92-121" value="FIM" style="ellipse;whiteSpace=wrap;html=1;rounded=0;fillColor=#f8cecc;strokeColor=#b85450;" vertex="1" parent="1">
          <mxGeometry x="517.5" y="820" width="35" height="30" as="geometry" />
        </mxCell>
        <mxCell id="7zDn4ZH_GtPBGwhXdW92-126" value="" style="edgeStyle=orthogonalEdgeStyle;rounded=0;orthogonalLoop=1;jettySize=auto;html=1;" edge="1" parent="1" target="7zDn4ZH_GtPBGwhXdW92-127">
          <mxGeometry relative="1" as="geometry">
            <mxPoint x="482.5" y="230" as="sourcePoint" />
          </mxGeometry>
        </mxCell>
        <mxCell id="7zDn4ZH_GtPBGwhXdW92-127" value="FIM" style="ellipse;whiteSpace=wrap;html=1;rounded=0;fillColor=#f8cecc;strokeColor=#b85450;" vertex="1" parent="1">
          <mxGeometry x="462.5" y="260" width="35" height="30" as="geometry" />
        </mxCell>
        <mxCell id="7zDn4ZH_GtPBGwhXdW92-134" style="edgeStyle=orthogonalEdgeStyle;rounded=0;orthogonalLoop=1;jettySize=auto;html=1;exitX=1;exitY=0.5;exitDx=0;exitDy=0;entryX=-0.003;entryY=0.65;entryDx=0;entryDy=0;entryPerimeter=0;" edge="1" parent="1" source="7zDn4ZH_GtPBGwhXdW92-128" target="7zDn4ZH_GtPBGwhXdW92-132">
          <mxGeometry relative="1" as="geometry" />
        </mxCell>
        <mxCell id="7zDn4ZH_GtPBGwhXdW92-128" value="&amp;gt;3" style="rhombus;whiteSpace=wrap;html=1;" vertex="1" parent="1">
          <mxGeometry x="238" y="2680" width="80" height="80" as="geometry" />
        </mxCell>
        <mxCell id="7zDn4ZH_GtPBGwhXdW92-130" value="NÃO" style="text;html=1;align=center;verticalAlign=middle;whiteSpace=wrap;rounded=0;" vertex="1" parent="1">
          <mxGeometry x="283" y="2270" width="60" height="30" as="geometry" />
        </mxCell>
        <mxCell id="7zDn4ZH_GtPBGwhXdW92-131" value="NÃO" style="text;html=1;align=center;verticalAlign=middle;whiteSpace=wrap;rounded=0;" vertex="1" parent="1">
          <mxGeometry x="268" y="2620" width="60" height="30" as="geometry" />
        </mxCell>
        <mxCell id="kke_oH9LQtOZnyXwMWGX-53" style="edgeStyle=orthogonalEdgeStyle;rounded=0;orthogonalLoop=1;jettySize=auto;html=1;exitX=1;exitY=0.5;exitDx=0;exitDy=0;" edge="1" parent="1" source="7zDn4ZH_GtPBGwhXdW92-132">
          <mxGeometry relative="1" as="geometry">
            <mxPoint x="893" y="2390" as="targetPoint" />
          </mxGeometry>
        </mxCell>
        <mxCell id="7zDn4ZH_GtPBGwhXdW92-132" value="&lt;span style=&quot;color: rgb(29, 33, 37); font-family: Barlow, sans-serif; font-size: 15px; text-align: left; background-color: rgb(255, 255, 255);&quot;&gt;#cresceiemultiplicaivos&lt;/span&gt;" style="whiteSpace=wrap;html=1;" vertex="1" parent="1">
          <mxGeometry x="428" y="2680" width="345" height="60" as="geometry" />
        </mxCell>
        <mxCell id="7zDn4ZH_GtPBGwhXdW92-133" value="SIM" style="text;html=1;align=center;verticalAlign=middle;whiteSpace=wrap;rounded=0;" vertex="1" parent="1">
          <mxGeometry x="333" y="2668" width="60" height="30" as="geometry" />
        </mxCell>
        <mxCell id="7zDn4ZH_GtPBGwhXdW92-145" style="edgeStyle=orthogonalEdgeStyle;rounded=0;orthogonalLoop=1;jettySize=auto;html=1;exitX=1;exitY=0.5;exitDx=0;exitDy=0;entryX=-0.003;entryY=0.65;entryDx=0;entryDy=0;entryPerimeter=0;" edge="1" parent="1" source="7zDn4ZH_GtPBGwhXdW92-146" target="7zDn4ZH_GtPBGwhXdW92-148">
          <mxGeometry relative="1" as="geometry" />
        </mxCell>
        <mxCell id="7zDn4ZH_GtPBGwhXdW92-151" style="edgeStyle=orthogonalEdgeStyle;rounded=0;orthogonalLoop=1;jettySize=auto;html=1;exitX=0.5;exitY=1;exitDx=0;exitDy=0;entryX=0.5;entryY=0;entryDx=0;entryDy=0;" edge="1" parent="1" source="7zDn4ZH_GtPBGwhXdW92-146" target="7zDn4ZH_GtPBGwhXdW92-128">
          <mxGeometry relative="1" as="geometry" />
        </mxCell>
        <mxCell id="7zDn4ZH_GtPBGwhXdW92-146" value="=0&lt;span style=&quot;white-space: pre;&quot;&gt;&#x9;&lt;/span&gt;" style="rhombus;whiteSpace=wrap;html=1;" vertex="1" parent="1">
          <mxGeometry x="238" y="2510" width="80" height="80" as="geometry" />
        </mxCell>
        <mxCell id="7zDn4ZH_GtPBGwhXdW92-147" value="NÃO" style="text;html=1;align=center;verticalAlign=middle;whiteSpace=wrap;rounded=0;" vertex="1" parent="1">
          <mxGeometry x="273" y="2448" width="60" height="30" as="geometry" />
        </mxCell>
        <mxCell id="kke_oH9LQtOZnyXwMWGX-52" style="edgeStyle=orthogonalEdgeStyle;rounded=0;orthogonalLoop=1;jettySize=auto;html=1;exitX=1;exitY=0.5;exitDx=0;exitDy=0;entryX=0.5;entryY=1;entryDx=0;entryDy=0;" edge="1" parent="1" source="7zDn4ZH_GtPBGwhXdW92-148" target="7zDn4ZH_GtPBGwhXdW92-157">
          <mxGeometry relative="1" as="geometry" />
        </mxCell>
        <mxCell id="7zDn4ZH_GtPBGwhXdW92-148" value="&lt;span style=&quot;color: rgb(29, 33, 37); font-family: Barlow, sans-serif; font-size: 15px; text-align: left; background-color: rgb(255, 255, 255);&quot;&gt;#tv&amp;nbsp; #internet&amp;nbsp; #videogame&lt;/span&gt;" style="whiteSpace=wrap;html=1;" vertex="1" parent="1">
          <mxGeometry x="428" y="2510" width="345" height="60" as="geometry" />
        </mxCell>
        <mxCell id="7zDn4ZH_GtPBGwhXdW92-149" value="SIM" style="text;html=1;align=center;verticalAlign=middle;whiteSpace=wrap;rounded=0;" vertex="1" parent="1">
          <mxGeometry x="333" y="2520" width="60" height="30" as="geometry" />
        </mxCell>
        <mxCell id="7zDn4ZH_GtPBGwhXdW92-157" value="FIM" style="ellipse;whiteSpace=wrap;html=1;rounded=0;fillColor=#f8cecc;strokeColor=#b85450;" vertex="1" parent="1">
          <mxGeometry x="870" y="2360" width="35" height="30" as="geometry" />
        </mxCell>
        <mxCell id="7zDn4ZH_GtPBGwhXdW92-165" value="NÃO" style="text;html=1;align=center;verticalAlign=middle;whiteSpace=wrap;rounded=0;" vertex="1" parent="1">
          <mxGeometry x="170" y="1680" width="60" height="30" as="geometry" />
        </mxCell>
        <mxCell id="7zDn4ZH_GtPBGwhXdW92-169" style="edgeStyle=orthogonalEdgeStyle;rounded=0;orthogonalLoop=1;jettySize=auto;html=1;exitX=0.5;exitY=1;exitDx=0;exitDy=0;" edge="1" parent="1" source="7zDn4ZH_GtPBGwhXdW92-167">
          <mxGeometry relative="1" as="geometry">
            <mxPoint x="86.5" y="970" as="targetPoint" />
          </mxGeometry>
        </mxCell>
        <mxCell id="7zDn4ZH_GtPBGwhXdW92-167" value="INICIO" style="ellipse;whiteSpace=wrap;html=1;rounded=0;fillColor=#d5e8d4;strokeColor=#82b366;" vertex="1" parent="1">
          <mxGeometry x="62.5" y="910" width="47.5" height="40" as="geometry" />
        </mxCell>
        <mxCell id="7zDn4ZH_GtPBGwhXdW92-173" style="edgeStyle=orthogonalEdgeStyle;rounded=0;orthogonalLoop=1;jettySize=auto;html=1;exitX=0.5;exitY=1;exitDx=0;exitDy=0;" edge="1" parent="1" source="7zDn4ZH_GtPBGwhXdW92-174">
          <mxGeometry relative="1" as="geometry">
            <mxPoint x="94" y="370" as="targetPoint" />
          </mxGeometry>
        </mxCell>
        <mxCell id="7zDn4ZH_GtPBGwhXdW92-174" value="INICIO" style="ellipse;whiteSpace=wrap;html=1;rounded=0;fillColor=#d5e8d4;strokeColor=#82b366;" vertex="1" parent="1">
          <mxGeometry x="70" y="310" width="47.5" height="40" as="geometry" />
        </mxCell>
        <mxCell id="7zDn4ZH_GtPBGwhXdW92-177" style="edgeStyle=orthogonalEdgeStyle;rounded=0;orthogonalLoop=1;jettySize=auto;html=1;exitX=0;exitY=0.5;exitDx=0;exitDy=0;entryX=1;entryY=0.5;entryDx=0;entryDy=0;" edge="1" parent="1" source="7zDn4ZH_GtPBGwhXdW92-176" target="7zDn4ZH_GtPBGwhXdW92-1">
          <mxGeometry relative="1" as="geometry" />
        </mxCell>
        <mxCell id="7zDn4ZH_GtPBGwhXdW92-176" value="INICIO" style="ellipse;whiteSpace=wrap;html=1;rounded=0;fillColor=#d5e8d4;strokeColor=#82b366;" vertex="1" parent="1">
          <mxGeometry x="205" y="40" width="47.5" height="40" as="geometry" />
        </mxCell>
        <mxCell id="7zDn4ZH_GtPBGwhXdW92-178" style="edgeStyle=orthogonalEdgeStyle;rounded=0;orthogonalLoop=1;jettySize=auto;html=1;exitX=0.5;exitY=1;exitDx=0;exitDy=0;" edge="1" parent="1" source="7zDn4ZH_GtPBGwhXdW92-179">
          <mxGeometry relative="1" as="geometry">
            <mxPoint x="116.5" y="1600" as="targetPoint" />
          </mxGeometry>
        </mxCell>
        <mxCell id="7zDn4ZH_GtPBGwhXdW92-179" value="INICIO" style="ellipse;whiteSpace=wrap;html=1;rounded=0;fillColor=#d5e8d4;strokeColor=#82b366;" vertex="1" parent="1">
          <mxGeometry x="92.5" y="1540" width="47.5" height="40" as="geometry" />
        </mxCell>
        <mxCell id="7zDn4ZH_GtPBGwhXdW92-183" value="" style="edgeStyle=orthogonalEdgeStyle;rounded=0;orthogonalLoop=1;jettySize=auto;html=1;" edge="1" parent="1" source="7zDn4ZH_GtPBGwhXdW92-181" target="7zDn4ZH_GtPBGwhXdW92-182">
          <mxGeometry relative="1" as="geometry" />
        </mxCell>
        <mxCell id="7zDn4ZH_GtPBGwhXdW92-181" value="INICIO" style="ellipse;whiteSpace=wrap;html=1;rounded=0;fillColor=#d5e8d4;strokeColor=#82b366;" vertex="1" parent="1">
          <mxGeometry x="63.129999999999995" y="2800" width="47.5" height="40" as="geometry" />
        </mxCell>
        <mxCell id="7zDn4ZH_GtPBGwhXdW92-230" style="edgeStyle=orthogonalEdgeStyle;rounded=0;orthogonalLoop=1;jettySize=auto;html=1;exitX=0.5;exitY=1;exitDx=0;exitDy=0;entryX=0.5;entryY=0;entryDx=0;entryDy=0;" edge="1" parent="1" source="7zDn4ZH_GtPBGwhXdW92-182" target="7zDn4ZH_GtPBGwhXdW92-217">
          <mxGeometry relative="1" as="geometry" />
        </mxCell>
        <mxCell id="7zDn4ZH_GtPBGwhXdW92-182" value="HORAS DORMIDAS FORMATO 00:00" style="whiteSpace=wrap;html=1;rounded=0;" vertex="1" parent="1">
          <mxGeometry x="3.75" y="2910" width="166.25" height="60" as="geometry" />
        </mxCell>
        <mxCell id="7zDn4ZH_GtPBGwhXdW92-208" value="" style="edgeStyle=orthogonalEdgeStyle;rounded=0;orthogonalLoop=1;jettySize=auto;html=1;" edge="1" parent="1" target="7zDn4ZH_GtPBGwhXdW92-216">
          <mxGeometry relative="1" as="geometry">
            <mxPoint x="130" y="3050" as="sourcePoint" />
          </mxGeometry>
        </mxCell>
        <mxCell id="7zDn4ZH_GtPBGwhXdW92-210" value="" style="edgeStyle=orthogonalEdgeStyle;rounded=0;orthogonalLoop=1;jettySize=auto;html=1;" edge="1" parent="1" source="7zDn4ZH_GtPBGwhXdW92-217" target="7zDn4ZH_GtPBGwhXdW92-219">
          <mxGeometry relative="1" as="geometry" />
        </mxCell>
        <mxCell id="7zDn4ZH_GtPBGwhXdW92-211" value="" style="edgeStyle=orthogonalEdgeStyle;rounded=0;orthogonalLoop=1;jettySize=auto;html=1;" edge="1" parent="1" target="7zDn4ZH_GtPBGwhXdW92-221">
          <mxGeometry relative="1" as="geometry">
            <mxPoint x="130" y="3370" as="sourcePoint" />
          </mxGeometry>
        </mxCell>
        <mxCell id="7zDn4ZH_GtPBGwhXdW92-212" value="" style="edgeStyle=orthogonalEdgeStyle;rounded=0;orthogonalLoop=1;jettySize=auto;html=1;" edge="1" parent="1" source="7zDn4ZH_GtPBGwhXdW92-219" target="7zDn4ZH_GtPBGwhXdW92-223">
          <mxGeometry relative="1" as="geometry" />
        </mxCell>
        <mxCell id="7zDn4ZH_GtPBGwhXdW92-214" value="" style="edgeStyle=orthogonalEdgeStyle;rounded=0;orthogonalLoop=1;jettySize=auto;html=1;" edge="1" parent="1" target="7zDn4ZH_GtPBGwhXdW92-224">
          <mxGeometry relative="1" as="geometry">
            <mxPoint x="125" y="3210" as="sourcePoint" />
          </mxGeometry>
        </mxCell>
        <mxCell id="kke_oH9LQtOZnyXwMWGX-48" style="edgeStyle=orthogonalEdgeStyle;rounded=0;orthogonalLoop=1;jettySize=auto;html=1;exitX=1;exitY=0.5;exitDx=0;exitDy=0;entryX=0.5;entryY=0;entryDx=0;entryDy=0;" edge="1" parent="1" source="7zDn4ZH_GtPBGwhXdW92-216" target="7zDn4ZH_GtPBGwhXdW92-228">
          <mxGeometry relative="1" as="geometry" />
        </mxCell>
        <mxCell id="7zDn4ZH_GtPBGwhXdW92-216" value="&lt;span style=&quot;color: rgb(29, 33, 37); font-family: Barlow, sans-serif; font-size: 15px; text-align: left; background-color: rgb(255, 255, 255);&quot;&gt;#zumbI&lt;/span&gt;" style="whiteSpace=wrap;html=1;rounded=0;" vertex="1" parent="1">
          <mxGeometry x="245" y="3020" width="355" height="60" as="geometry" />
        </mxCell>
        <mxCell id="7zDn4ZH_GtPBGwhXdW92-217" value="&amp;lt;=4" style="rhombus;whiteSpace=wrap;html=1;" vertex="1" parent="1">
          <mxGeometry x="45" y="3010" width="80" height="80" as="geometry" />
        </mxCell>
        <mxCell id="7zDn4ZH_GtPBGwhXdW92-218" value="SIM" style="text;html=1;align=center;verticalAlign=middle;whiteSpace=wrap;rounded=0;" vertex="1" parent="1">
          <mxGeometry x="150" y="3020" width="60" height="30" as="geometry" />
        </mxCell>
        <mxCell id="7zDn4ZH_GtPBGwhXdW92-219" value="=&amp;gt;4 E &amp;lt;=7" style="rhombus;whiteSpace=wrap;html=1;" vertex="1" parent="1">
          <mxGeometry x="45" y="3170" width="80" height="80" as="geometry" />
        </mxCell>
        <mxCell id="7zDn4ZH_GtPBGwhXdW92-220" value="NÃO" style="text;html=1;align=center;verticalAlign=middle;whiteSpace=wrap;rounded=0;" vertex="1" parent="1">
          <mxGeometry x="90" y="3110" width="60" height="30" as="geometry" />
        </mxCell>
        <mxCell id="kke_oH9LQtOZnyXwMWGX-46" style="edgeStyle=orthogonalEdgeStyle;rounded=0;orthogonalLoop=1;jettySize=auto;html=1;exitX=1;exitY=0.5;exitDx=0;exitDy=0;" edge="1" parent="1" source="7zDn4ZH_GtPBGwhXdW92-221">
          <mxGeometry relative="1" as="geometry">
            <mxPoint x="740" y="3330" as="targetPoint" />
          </mxGeometry>
        </mxCell>
        <mxCell id="7zDn4ZH_GtPBGwhXdW92-221" value="&lt;span style=&quot;color: rgb(29, 33, 37); font-family: Barlow, sans-serif; font-size: 15px; text-align: left; background-color: rgb(255, 255, 255);&quot;&gt;Boa concentração&lt;/span&gt;" style="whiteSpace=wrap;html=1;" vertex="1" parent="1">
          <mxGeometry x="250" y="3340" width="345" height="60" as="geometry" />
        </mxCell>
        <mxCell id="7zDn4ZH_GtPBGwhXdW92-222" value="SIM" style="text;html=1;align=center;verticalAlign=middle;whiteSpace=wrap;rounded=0;" vertex="1" parent="1">
          <mxGeometry x="155" y="3330" width="60" height="30" as="geometry" />
        </mxCell>
        <mxCell id="kke_oH9LQtOZnyXwMWGX-254" style="edgeStyle=orthogonalEdgeStyle;rounded=0;orthogonalLoop=1;jettySize=auto;html=1;exitX=0.5;exitY=1;exitDx=0;exitDy=0;entryX=0;entryY=0.75;entryDx=0;entryDy=0;" edge="1" parent="1" source="7zDn4ZH_GtPBGwhXdW92-223" target="7zDn4ZH_GtPBGwhXdW92-234">
          <mxGeometry relative="1" as="geometry" />
        </mxCell>
        <mxCell id="7zDn4ZH_GtPBGwhXdW92-223" value="=&amp;gt;7 E &amp;lt;=9" style="rhombus;whiteSpace=wrap;html=1;" vertex="1" parent="1">
          <mxGeometry x="45" y="3330" width="80" height="80" as="geometry" />
        </mxCell>
        <mxCell id="kke_oH9LQtOZnyXwMWGX-47" style="edgeStyle=orthogonalEdgeStyle;rounded=0;orthogonalLoop=1;jettySize=auto;html=1;exitX=1;exitY=0.5;exitDx=0;exitDy=0;" edge="1" parent="1" source="7zDn4ZH_GtPBGwhXdW92-224" target="7zDn4ZH_GtPBGwhXdW92-228">
          <mxGeometry relative="1" as="geometry" />
        </mxCell>
        <mxCell id="7zDn4ZH_GtPBGwhXdW92-224" value="&lt;span style=&quot;color: rgb(29, 33, 37); font-family: Barlow, sans-serif; font-size: 15px; text-align: left; background-color: rgb(255, 255, 255);&quot;&gt;Pouca concentração&lt;/span&gt;" style="whiteSpace=wrap;html=1;" vertex="1" parent="1">
          <mxGeometry x="245" y="3180" width="345" height="60" as="geometry" />
        </mxCell>
        <mxCell id="7zDn4ZH_GtPBGwhXdW92-225" value="SIM" style="text;html=1;align=center;verticalAlign=middle;whiteSpace=wrap;rounded=0;" vertex="1" parent="1">
          <mxGeometry x="150" y="3170" width="60" height="30" as="geometry" />
        </mxCell>
        <mxCell id="7zDn4ZH_GtPBGwhXdW92-226" value="NÃO" style="text;html=1;align=center;verticalAlign=middle;whiteSpace=wrap;rounded=0;" vertex="1" parent="1">
          <mxGeometry x="90" y="3270" width="60" height="30" as="geometry" />
        </mxCell>
        <mxCell id="7zDn4ZH_GtPBGwhXdW92-228" value="FIM" style="ellipse;whiteSpace=wrap;html=1;rounded=0;fillColor=#f8cecc;strokeColor=#b85450;" vertex="1" parent="1">
          <mxGeometry x="720" y="3300" width="35" height="30" as="geometry" />
        </mxCell>
        <mxCell id="kke_oH9LQtOZnyXwMWGX-45" style="edgeStyle=orthogonalEdgeStyle;rounded=0;orthogonalLoop=1;jettySize=auto;html=1;exitX=1;exitY=0.5;exitDx=0;exitDy=0;" edge="1" parent="1" source="7zDn4ZH_GtPBGwhXdW92-234">
          <mxGeometry relative="1" as="geometry">
            <mxPoint x="738" y="3330" as="targetPoint" />
          </mxGeometry>
        </mxCell>
        <mxCell id="7zDn4ZH_GtPBGwhXdW92-234" value="&lt;span style=&quot;color: rgb(29, 33, 37); font-family: Barlow, sans-serif; font-size: 15px; text-align: left; background-color: rgb(255, 255, 255);&quot;&gt;Olha a preguiça!&lt;/span&gt;" style="whiteSpace=wrap;html=1;" vertex="1" parent="1">
          <mxGeometry x="250" y="3500" width="345" height="60" as="geometry" />
        </mxCell>
        <mxCell id="7zDn4ZH_GtPBGwhXdW92-245" value="" style="edgeStyle=orthogonalEdgeStyle;rounded=0;orthogonalLoop=1;jettySize=auto;html=1;" edge="1" parent="1" source="7zDn4ZH_GtPBGwhXdW92-243" target="7zDn4ZH_GtPBGwhXdW92-244">
          <mxGeometry relative="1" as="geometry" />
        </mxCell>
        <mxCell id="7zDn4ZH_GtPBGwhXdW92-243" value="INICIO" style="ellipse;whiteSpace=wrap;html=1;rounded=0;fillColor=#d5e8d4;strokeColor=#82b366;" vertex="1" parent="1">
          <mxGeometry x="57.5" y="3720" width="47.5" height="40" as="geometry" />
        </mxCell>
        <mxCell id="7zDn4ZH_GtPBGwhXdW92-247" value="" style="edgeStyle=orthogonalEdgeStyle;rounded=0;orthogonalLoop=1;jettySize=auto;html=1;" edge="1" parent="1" source="7zDn4ZH_GtPBGwhXdW92-244" target="7zDn4ZH_GtPBGwhXdW92-246">
          <mxGeometry relative="1" as="geometry" />
        </mxCell>
        <mxCell id="7zDn4ZH_GtPBGwhXdW92-244" value="INFORMA LARGURA&lt;div&gt;&lt;br&gt;&lt;/div&gt;" style="whiteSpace=wrap;html=1;rounded=0;" vertex="1" parent="1">
          <mxGeometry x="21.25" y="3830" width="120" height="60" as="geometry" />
        </mxCell>
        <mxCell id="7zDn4ZH_GtPBGwhXdW92-249" value="" style="edgeStyle=orthogonalEdgeStyle;rounded=0;orthogonalLoop=1;jettySize=auto;html=1;" edge="1" parent="1" source="7zDn4ZH_GtPBGwhXdW92-246" target="7zDn4ZH_GtPBGwhXdW92-248">
          <mxGeometry relative="1" as="geometry" />
        </mxCell>
        <mxCell id="7zDn4ZH_GtPBGwhXdW92-246" value="INFORMA ALTURA" style="whiteSpace=wrap;html=1;rounded=0;" vertex="1" parent="1">
          <mxGeometry x="21.25" y="3970" width="120" height="60" as="geometry" />
        </mxCell>
        <mxCell id="7zDn4ZH_GtPBGwhXdW92-274" style="edgeStyle=orthogonalEdgeStyle;rounded=0;orthogonalLoop=1;jettySize=auto;html=1;exitX=1;exitY=0.5;exitDx=0;exitDy=0;entryX=0;entryY=0.5;entryDx=0;entryDy=0;" edge="1" parent="1" source="7zDn4ZH_GtPBGwhXdW92-248" target="7zDn4ZH_GtPBGwhXdW92-257">
          <mxGeometry relative="1" as="geometry" />
        </mxCell>
        <mxCell id="7zDn4ZH_GtPBGwhXdW92-248" value="CALCULA ÁREA&lt;div&gt;&lt;br&gt;&lt;/div&gt;" style="whiteSpace=wrap;html=1;rounded=0;" vertex="1" parent="1">
          <mxGeometry x="221.25" y="3970" width="120" height="60" as="geometry" />
        </mxCell>
        <mxCell id="7zDn4ZH_GtPBGwhXdW92-252" value="" style="edgeStyle=orthogonalEdgeStyle;rounded=0;orthogonalLoop=1;jettySize=auto;html=1;" edge="1" parent="1" target="7zDn4ZH_GtPBGwhXdW92-258">
          <mxGeometry relative="1" as="geometry">
            <mxPoint x="490" y="4150" as="sourcePoint" />
          </mxGeometry>
        </mxCell>
        <mxCell id="7zDn4ZH_GtPBGwhXdW92-253" value="" style="edgeStyle=orthogonalEdgeStyle;rounded=0;orthogonalLoop=1;jettySize=auto;html=1;" edge="1" parent="1" source="7zDn4ZH_GtPBGwhXdW92-257" target="7zDn4ZH_GtPBGwhXdW92-260">
          <mxGeometry relative="1" as="geometry" />
        </mxCell>
        <mxCell id="7zDn4ZH_GtPBGwhXdW92-255" value="" style="edgeStyle=orthogonalEdgeStyle;rounded=0;orthogonalLoop=1;jettySize=auto;html=1;" edge="1" parent="1" target="7zDn4ZH_GtPBGwhXdW92-261">
          <mxGeometry relative="1" as="geometry">
            <mxPoint x="485" y="3990" as="sourcePoint" />
          </mxGeometry>
        </mxCell>
        <mxCell id="7zDn4ZH_GtPBGwhXdW92-256" style="edgeStyle=orthogonalEdgeStyle;rounded=0;orthogonalLoop=1;jettySize=auto;html=1;exitX=0.5;exitY=1;exitDx=0;exitDy=0;entryX=0.5;entryY=0;entryDx=0;entryDy=0;" edge="1" parent="1" source="7zDn4ZH_GtPBGwhXdW92-261" target="7zDn4ZH_GtPBGwhXdW92-264">
          <mxGeometry relative="1" as="geometry" />
        </mxCell>
        <mxCell id="7zDn4ZH_GtPBGwhXdW92-257" value="&amp;lt;=100" style="rhombus;whiteSpace=wrap;html=1;" vertex="1" parent="1">
          <mxGeometry x="405" y="3950" width="80" height="80" as="geometry" />
        </mxCell>
        <mxCell id="kke_oH9LQtOZnyXwMWGX-43" style="edgeStyle=orthogonalEdgeStyle;rounded=0;orthogonalLoop=1;jettySize=auto;html=1;exitX=1;exitY=0.5;exitDx=0;exitDy=0;entryX=0;entryY=0.5;entryDx=0;entryDy=0;" edge="1" parent="1" source="7zDn4ZH_GtPBGwhXdW92-258" target="7zDn4ZH_GtPBGwhXdW92-264">
          <mxGeometry relative="1" as="geometry" />
        </mxCell>
        <mxCell id="7zDn4ZH_GtPBGwhXdW92-258" value="&lt;span style=&quot;color: rgb(29, 33, 37); font-family: Barlow, sans-serif; font-size: 15px; text-align: left; background-color: rgb(255, 255, 255);&quot;&gt;#terrenomedio&lt;/span&gt;" style="whiteSpace=wrap;html=1;" vertex="1" parent="1">
          <mxGeometry x="610" y="4120" width="345" height="60" as="geometry" />
        </mxCell>
        <mxCell id="7zDn4ZH_GtPBGwhXdW92-259" value="SIM" style="text;html=1;align=center;verticalAlign=middle;whiteSpace=wrap;rounded=0;" vertex="1" parent="1">
          <mxGeometry x="515" y="4110" width="60" height="30" as="geometry" />
        </mxCell>
        <mxCell id="7zDn4ZH_GtPBGwhXdW92-260" value="&amp;gt;100 E &amp;lt;=250" style="rhombus;whiteSpace=wrap;html=1;" vertex="1" parent="1">
          <mxGeometry x="405" y="4110" width="80" height="80" as="geometry" />
        </mxCell>
        <mxCell id="7zDn4ZH_GtPBGwhXdW92-261" value="&lt;span style=&quot;color: rgb(29, 33, 37); font-family: Barlow, sans-serif; font-size: 15px; text-align: left; background-color: rgb(255, 255, 255);&quot;&gt;#terrenopequeno&lt;/span&gt;" style="whiteSpace=wrap;html=1;" vertex="1" parent="1">
          <mxGeometry x="605" y="3960" width="345" height="60" as="geometry" />
        </mxCell>
        <mxCell id="7zDn4ZH_GtPBGwhXdW92-262" value="SIM" style="text;html=1;align=center;verticalAlign=middle;whiteSpace=wrap;rounded=0;" vertex="1" parent="1">
          <mxGeometry x="510" y="3950" width="60" height="30" as="geometry" />
        </mxCell>
        <mxCell id="7zDn4ZH_GtPBGwhXdW92-263" value="NÃO" style="text;html=1;align=center;verticalAlign=middle;whiteSpace=wrap;rounded=0;" vertex="1" parent="1">
          <mxGeometry x="450" y="4050" width="60" height="30" as="geometry" />
        </mxCell>
        <mxCell id="7zDn4ZH_GtPBGwhXdW92-264" value="FIM" style="ellipse;whiteSpace=wrap;html=1;rounded=0;fillColor=#f8cecc;strokeColor=#b85450;" vertex="1" parent="1">
          <mxGeometry x="1110" y="4135" width="35" height="30" as="geometry" />
        </mxCell>
        <mxCell id="7zDn4ZH_GtPBGwhXdW92-266" value="" style="edgeStyle=orthogonalEdgeStyle;rounded=0;orthogonalLoop=1;jettySize=auto;html=1;" edge="1" parent="1" target="7zDn4ZH_GtPBGwhXdW92-269">
          <mxGeometry relative="1" as="geometry">
            <mxPoint x="490" y="4310" as="sourcePoint" />
          </mxGeometry>
        </mxCell>
        <mxCell id="7zDn4ZH_GtPBGwhXdW92-267" value="" style="edgeStyle=orthogonalEdgeStyle;rounded=0;orthogonalLoop=1;jettySize=auto;html=1;" edge="1" parent="1" target="7zDn4ZH_GtPBGwhXdW92-271">
          <mxGeometry relative="1" as="geometry">
            <mxPoint x="445" y="4190" as="sourcePoint" />
          </mxGeometry>
        </mxCell>
        <mxCell id="kke_oH9LQtOZnyXwMWGX-44" style="edgeStyle=orthogonalEdgeStyle;rounded=0;orthogonalLoop=1;jettySize=auto;html=1;exitX=1;exitY=0.5;exitDx=0;exitDy=0;" edge="1" parent="1" source="7zDn4ZH_GtPBGwhXdW92-269" target="7zDn4ZH_GtPBGwhXdW92-264">
          <mxGeometry relative="1" as="geometry" />
        </mxCell>
        <mxCell id="7zDn4ZH_GtPBGwhXdW92-269" value="&lt;span style=&quot;color: rgb(29, 33, 37); font-family: Barlow, sans-serif; font-size: 15px; text-align: left; background-color: rgb(255, 255, 255);&quot;&gt;#terrenogrande&lt;/span&gt;" style="whiteSpace=wrap;html=1;" vertex="1" parent="1">
          <mxGeometry x="610" y="4280" width="345" height="60" as="geometry" />
        </mxCell>
        <mxCell id="7zDn4ZH_GtPBGwhXdW92-270" value="SIM" style="text;html=1;align=center;verticalAlign=middle;whiteSpace=wrap;rounded=0;" vertex="1" parent="1">
          <mxGeometry x="515" y="4270" width="60" height="30" as="geometry" />
        </mxCell>
        <mxCell id="7zDn4ZH_GtPBGwhXdW92-271" value="&amp;gt;250" style="rhombus;whiteSpace=wrap;html=1;" vertex="1" parent="1">
          <mxGeometry x="405" y="4270" width="80" height="80" as="geometry" />
        </mxCell>
        <mxCell id="7zDn4ZH_GtPBGwhXdW92-272" value="NÃO" style="text;html=1;align=center;verticalAlign=middle;whiteSpace=wrap;rounded=0;" vertex="1" parent="1">
          <mxGeometry x="450" y="4210" width="60" height="30" as="geometry" />
        </mxCell>
        <mxCell id="7zDn4ZH_GtPBGwhXdW92-275" value="" style="edgeStyle=orthogonalEdgeStyle;rounded=0;orthogonalLoop=1;jettySize=auto;html=1;" edge="1" parent="1" source="7zDn4ZH_GtPBGwhXdW92-276" target="7zDn4ZH_GtPBGwhXdW92-277">
          <mxGeometry relative="1" as="geometry" />
        </mxCell>
        <mxCell id="7zDn4ZH_GtPBGwhXdW92-276" value="INICIO" style="ellipse;whiteSpace=wrap;html=1;rounded=0;fillColor=#d5e8d4;strokeColor=#82b366;" vertex="1" parent="1">
          <mxGeometry x="56.25" y="4440" width="47.5" height="40" as="geometry" />
        </mxCell>
        <mxCell id="kke_oH9LQtOZnyXwMWGX-2" value="" style="edgeStyle=orthogonalEdgeStyle;rounded=0;orthogonalLoop=1;jettySize=auto;html=1;" edge="1" parent="1" source="7zDn4ZH_GtPBGwhXdW92-277" target="kke_oH9LQtOZnyXwMWGX-1">
          <mxGeometry relative="1" as="geometry" />
        </mxCell>
        <mxCell id="7zDn4ZH_GtPBGwhXdW92-277" value="VALOR FACULDADE&lt;div&gt;N1&lt;/div&gt;" style="whiteSpace=wrap;html=1;rounded=0;" vertex="1" parent="1">
          <mxGeometry x="20" y="4550" width="120" height="60" as="geometry" />
        </mxCell>
        <mxCell id="kke_oH9LQtOZnyXwMWGX-4" value="" style="edgeStyle=orthogonalEdgeStyle;rounded=0;orthogonalLoop=1;jettySize=auto;html=1;" edge="1" parent="1" source="kke_oH9LQtOZnyXwMWGX-1" target="kke_oH9LQtOZnyXwMWGX-3">
          <mxGeometry relative="1" as="geometry" />
        </mxCell>
        <mxCell id="kke_oH9LQtOZnyXwMWGX-1" value="VALOR ESTAGIO&lt;div&gt;N2&lt;/div&gt;" style="whiteSpace=wrap;html=1;rounded=0;" vertex="1" parent="1">
          <mxGeometry x="220" y="4550" width="120" height="60" as="geometry" />
        </mxCell>
        <mxCell id="kke_oH9LQtOZnyXwMWGX-6" value="" style="edgeStyle=orthogonalEdgeStyle;rounded=0;orthogonalLoop=1;jettySize=auto;html=1;" edge="1" parent="1" source="kke_oH9LQtOZnyXwMWGX-3" target="kke_oH9LQtOZnyXwMWGX-5">
          <mxGeometry relative="1" as="geometry" />
        </mxCell>
        <mxCell id="kke_oH9LQtOZnyXwMWGX-3" value="&lt;div style=&quot;text-align: left;&quot;&gt;&lt;font face=&quot;Barlow, sans-serif&quot; color=&quot;#1d2125&quot;&gt;&lt;span style=&quot;font-size: 15px; background-color: rgb(255, 255, 255);&quot;&gt;CALCULA MEDIA MENSAL&lt;/span&gt;&lt;/font&gt;&lt;/div&gt;&lt;div style=&quot;text-align: left;&quot;&gt;&lt;font face=&quot;Barlow, sans-serif&quot; color=&quot;#1d2125&quot;&gt;&lt;span style=&quot;font-size: 15px; background-color: rgb(255, 255, 255);&quot;&gt;(N1-N2)/30&lt;/span&gt;&lt;/font&gt;&lt;/div&gt;" style="whiteSpace=wrap;html=1;rounded=0;" vertex="1" parent="1">
          <mxGeometry x="420" y="4550" width="210" height="60" as="geometry" />
        </mxCell>
        <mxCell id="kke_oH9LQtOZnyXwMWGX-8" value="" style="edgeStyle=orthogonalEdgeStyle;rounded=0;orthogonalLoop=1;jettySize=auto;html=1;" edge="1" parent="1" source="kke_oH9LQtOZnyXwMWGX-5" target="kke_oH9LQtOZnyXwMWGX-7">
          <mxGeometry relative="1" as="geometry" />
        </mxCell>
        <mxCell id="kke_oH9LQtOZnyXwMWGX-16" value="" style="edgeStyle=orthogonalEdgeStyle;rounded=0;orthogonalLoop=1;jettySize=auto;html=1;" edge="1" parent="1" source="kke_oH9LQtOZnyXwMWGX-5" target="kke_oH9LQtOZnyXwMWGX-15">
          <mxGeometry relative="1" as="geometry" />
        </mxCell>
        <mxCell id="kke_oH9LQtOZnyXwMWGX-5" value="&amp;lt;15" style="rhombus;whiteSpace=wrap;html=1;rounded=0;" vertex="1" parent="1">
          <mxGeometry x="775" y="4540" width="80" height="80" as="geometry" />
        </mxCell>
        <mxCell id="kke_oH9LQtOZnyXwMWGX-10" value="" style="edgeStyle=orthogonalEdgeStyle;rounded=0;orthogonalLoop=1;jettySize=auto;html=1;" edge="1" parent="1" source="kke_oH9LQtOZnyXwMWGX-7" target="kke_oH9LQtOZnyXwMWGX-9">
          <mxGeometry relative="1" as="geometry" />
        </mxCell>
        <mxCell id="kke_oH9LQtOZnyXwMWGX-7" value="=&amp;gt;15 E &amp;lt;=20" style="rhombus;whiteSpace=wrap;html=1;rounded=0;" vertex="1" parent="1">
          <mxGeometry x="775" y="4700" width="80" height="80" as="geometry" />
        </mxCell>
        <mxCell id="kke_oH9LQtOZnyXwMWGX-12" value="" style="edgeStyle=orthogonalEdgeStyle;rounded=0;orthogonalLoop=1;jettySize=auto;html=1;" edge="1" parent="1" source="kke_oH9LQtOZnyXwMWGX-9" target="kke_oH9LQtOZnyXwMWGX-11">
          <mxGeometry relative="1" as="geometry" />
        </mxCell>
        <mxCell id="kke_oH9LQtOZnyXwMWGX-9" value="&amp;gt;20 E &amp;lt;25" style="rhombus;whiteSpace=wrap;html=1;rounded=0;" vertex="1" parent="1">
          <mxGeometry x="775" y="4860" width="80" height="80" as="geometry" />
        </mxCell>
        <mxCell id="kke_oH9LQtOZnyXwMWGX-14" value="" style="edgeStyle=orthogonalEdgeStyle;rounded=0;orthogonalLoop=1;jettySize=auto;html=1;" edge="1" parent="1" source="kke_oH9LQtOZnyXwMWGX-11" target="kke_oH9LQtOZnyXwMWGX-13">
          <mxGeometry relative="1" as="geometry" />
        </mxCell>
        <mxCell id="kke_oH9LQtOZnyXwMWGX-11" value="=&amp;gt;25 E &amp;lt;=30" style="rhombus;whiteSpace=wrap;html=1;rounded=0;" vertex="1" parent="1">
          <mxGeometry x="775" y="5020" width="80" height="80" as="geometry" />
        </mxCell>
        <mxCell id="kke_oH9LQtOZnyXwMWGX-13" value="&amp;gt;30" style="rhombus;whiteSpace=wrap;html=1;rounded=0;" vertex="1" parent="1">
          <mxGeometry x="775" y="5180" width="80" height="80" as="geometry" />
        </mxCell>
        <mxCell id="kke_oH9LQtOZnyXwMWGX-42" style="edgeStyle=orthogonalEdgeStyle;rounded=0;orthogonalLoop=1;jettySize=auto;html=1;exitX=1;exitY=0.5;exitDx=0;exitDy=0;" edge="1" parent="1" source="kke_oH9LQtOZnyXwMWGX-15">
          <mxGeometry relative="1" as="geometry">
            <mxPoint x="1260" y="4840" as="targetPoint" />
          </mxGeometry>
        </mxCell>
        <mxCell id="kke_oH9LQtOZnyXwMWGX-15" value="&lt;span style=&quot;color: rgb(29, 33, 37); font-family: Barlow, sans-serif; font-size: 15px; text-align: left; background-color: rgb(255, 255, 255);&quot;&gt;#controletotal&lt;/span&gt;" style="whiteSpace=wrap;html=1;rounded=0;" vertex="1" parent="1">
          <mxGeometry x="940" y="4550" width="120" height="60" as="geometry" />
        </mxCell>
        <mxCell id="kke_oH9LQtOZnyXwMWGX-17" value="SIM" style="text;html=1;align=center;verticalAlign=middle;whiteSpace=wrap;rounded=0;" vertex="1" parent="1">
          <mxGeometry x="850" y="4540" width="60" height="30" as="geometry" />
        </mxCell>
        <mxCell id="kke_oH9LQtOZnyXwMWGX-18" value="" style="edgeStyle=orthogonalEdgeStyle;rounded=0;orthogonalLoop=1;jettySize=auto;html=1;" edge="1" parent="1" target="kke_oH9LQtOZnyXwMWGX-19">
          <mxGeometry relative="1" as="geometry">
            <mxPoint x="855" y="4740" as="sourcePoint" />
          </mxGeometry>
        </mxCell>
        <mxCell id="kke_oH9LQtOZnyXwMWGX-41" style="edgeStyle=orthogonalEdgeStyle;rounded=0;orthogonalLoop=1;jettySize=auto;html=1;exitX=1;exitY=0.5;exitDx=0;exitDy=0;entryX=0.5;entryY=0;entryDx=0;entryDy=0;" edge="1" parent="1" source="kke_oH9LQtOZnyXwMWGX-19" target="kke_oH9LQtOZnyXwMWGX-37">
          <mxGeometry relative="1" as="geometry" />
        </mxCell>
        <mxCell id="kke_oH9LQtOZnyXwMWGX-19" value="&lt;span style=&quot;color: rgb(29, 33, 37); font-family: Barlow, sans-serif; font-size: 15px; text-align: left; background-color: rgb(255, 255, 255);&quot;&gt;#ragazzonosabado&lt;/span&gt;" style="whiteSpace=wrap;html=1;rounded=0;" vertex="1" parent="1">
          <mxGeometry x="940" y="4710" width="140" height="60" as="geometry" />
        </mxCell>
        <mxCell id="kke_oH9LQtOZnyXwMWGX-20" value="SIM" style="text;html=1;align=center;verticalAlign=middle;whiteSpace=wrap;rounded=0;" vertex="1" parent="1">
          <mxGeometry x="850" y="4700" width="60" height="30" as="geometry" />
        </mxCell>
        <mxCell id="kke_oH9LQtOZnyXwMWGX-21" value="" style="edgeStyle=orthogonalEdgeStyle;rounded=0;orthogonalLoop=1;jettySize=auto;html=1;" edge="1" parent="1" target="kke_oH9LQtOZnyXwMWGX-22">
          <mxGeometry relative="1" as="geometry">
            <mxPoint x="855" y="4900" as="sourcePoint" />
          </mxGeometry>
        </mxCell>
        <mxCell id="kke_oH9LQtOZnyXwMWGX-40" style="edgeStyle=orthogonalEdgeStyle;rounded=0;orthogonalLoop=1;jettySize=auto;html=1;exitX=1;exitY=0.5;exitDx=0;exitDy=0;entryX=0.5;entryY=1;entryDx=0;entryDy=0;" edge="1" parent="1" source="kke_oH9LQtOZnyXwMWGX-22" target="kke_oH9LQtOZnyXwMWGX-37">
          <mxGeometry relative="1" as="geometry" />
        </mxCell>
        <mxCell id="kke_oH9LQtOZnyXwMWGX-22" value="&lt;span style=&quot;color: rgb(29, 33, 37); font-family: Barlow, sans-serif; font-size: 15px; text-align: left; background-color: rgb(255, 255, 255);&quot;&gt;#cinemanamorada&lt;/span&gt;" style="whiteSpace=wrap;html=1;rounded=0;" vertex="1" parent="1">
          <mxGeometry x="940" y="4870" width="140" height="60" as="geometry" />
        </mxCell>
        <mxCell id="kke_oH9LQtOZnyXwMWGX-23" value="SIM" style="text;html=1;align=center;verticalAlign=middle;whiteSpace=wrap;rounded=0;" vertex="1" parent="1">
          <mxGeometry x="850" y="4860" width="60" height="30" as="geometry" />
        </mxCell>
        <mxCell id="kke_oH9LQtOZnyXwMWGX-24" value="" style="edgeStyle=orthogonalEdgeStyle;rounded=0;orthogonalLoop=1;jettySize=auto;html=1;" edge="1" parent="1" target="kke_oH9LQtOZnyXwMWGX-25">
          <mxGeometry relative="1" as="geometry">
            <mxPoint x="855" y="5060" as="sourcePoint" />
          </mxGeometry>
        </mxCell>
        <mxCell id="kke_oH9LQtOZnyXwMWGX-39" style="edgeStyle=orthogonalEdgeStyle;rounded=0;orthogonalLoop=1;jettySize=auto;html=1;exitX=1;exitY=0.5;exitDx=0;exitDy=0;" edge="1" parent="1" source="kke_oH9LQtOZnyXwMWGX-25" target="kke_oH9LQtOZnyXwMWGX-37">
          <mxGeometry relative="1" as="geometry" />
        </mxCell>
        <mxCell id="kke_oH9LQtOZnyXwMWGX-25" value="&lt;span style=&quot;color: rgb(29, 33, 37); font-family: Barlow, sans-serif; font-size: 15px; text-align: left; background-color: rgb(255, 255, 255);&quot;&gt;#novogame&lt;/span&gt;" style="whiteSpace=wrap;html=1;rounded=0;" vertex="1" parent="1">
          <mxGeometry x="940" y="5030" width="120" height="60" as="geometry" />
        </mxCell>
        <mxCell id="kke_oH9LQtOZnyXwMWGX-26" value="SIM" style="text;html=1;align=center;verticalAlign=middle;whiteSpace=wrap;rounded=0;" vertex="1" parent="1">
          <mxGeometry x="850" y="5020" width="60" height="30" as="geometry" />
        </mxCell>
        <mxCell id="kke_oH9LQtOZnyXwMWGX-27" value="" style="edgeStyle=orthogonalEdgeStyle;rounded=0;orthogonalLoop=1;jettySize=auto;html=1;" edge="1" parent="1" target="kke_oH9LQtOZnyXwMWGX-28">
          <mxGeometry relative="1" as="geometry">
            <mxPoint x="855" y="5220" as="sourcePoint" />
          </mxGeometry>
        </mxCell>
        <mxCell id="kke_oH9LQtOZnyXwMWGX-38" style="edgeStyle=orthogonalEdgeStyle;rounded=0;orthogonalLoop=1;jettySize=auto;html=1;exitX=1;exitY=0.5;exitDx=0;exitDy=0;" edge="1" parent="1" source="kke_oH9LQtOZnyXwMWGX-28" target="kke_oH9LQtOZnyXwMWGX-37">
          <mxGeometry relative="1" as="geometry" />
        </mxCell>
        <mxCell id="kke_oH9LQtOZnyXwMWGX-28" value="&lt;span style=&quot;color: rgb(29, 33, 37); font-family: Barlow, sans-serif; font-size: 15px; text-align: left; background-color: rgb(255, 255, 255);&quot;&gt;#tobonito&lt;/span&gt;" style="whiteSpace=wrap;html=1;rounded=0;" vertex="1" parent="1">
          <mxGeometry x="940" y="5190" width="120" height="60" as="geometry" />
        </mxCell>
        <mxCell id="kke_oH9LQtOZnyXwMWGX-29" value="SIM" style="text;html=1;align=center;verticalAlign=middle;whiteSpace=wrap;rounded=0;" vertex="1" parent="1">
          <mxGeometry x="850" y="5180" width="60" height="30" as="geometry" />
        </mxCell>
        <mxCell id="kke_oH9LQtOZnyXwMWGX-33" value="NÃO" style="text;html=1;align=center;verticalAlign=middle;whiteSpace=wrap;rounded=0;" vertex="1" parent="1">
          <mxGeometry x="827" y="4640" width="60" height="30" as="geometry" />
        </mxCell>
        <mxCell id="kke_oH9LQtOZnyXwMWGX-34" value="NÃO" style="text;html=1;align=center;verticalAlign=middle;whiteSpace=wrap;rounded=0;" vertex="1" parent="1">
          <mxGeometry x="827" y="4800" width="60" height="30" as="geometry" />
        </mxCell>
        <mxCell id="kke_oH9LQtOZnyXwMWGX-35" value="NÃO" style="text;html=1;align=center;verticalAlign=middle;whiteSpace=wrap;rounded=0;" vertex="1" parent="1">
          <mxGeometry x="827" y="4960" width="60" height="30" as="geometry" />
        </mxCell>
        <mxCell id="kke_oH9LQtOZnyXwMWGX-36" value="NÃO" style="text;html=1;align=center;verticalAlign=middle;whiteSpace=wrap;rounded=0;" vertex="1" parent="1">
          <mxGeometry x="827" y="5120" width="60" height="30" as="geometry" />
        </mxCell>
        <mxCell id="kke_oH9LQtOZnyXwMWGX-37" value="FIM" style="ellipse;whiteSpace=wrap;html=1;rounded=0;fillColor=#f8cecc;strokeColor=#b85450;" vertex="1" parent="1">
          <mxGeometry x="1241" y="4830" width="35" height="30" as="geometry" />
        </mxCell>
        <mxCell id="kke_oH9LQtOZnyXwMWGX-60" value="" style="edgeStyle=orthogonalEdgeStyle;rounded=0;orthogonalLoop=1;jettySize=auto;html=1;" edge="1" parent="1" source="kke_oH9LQtOZnyXwMWGX-58" target="kke_oH9LQtOZnyXwMWGX-59">
          <mxGeometry relative="1" as="geometry" />
        </mxCell>
        <mxCell id="kke_oH9LQtOZnyXwMWGX-58" value="INICIO" style="ellipse;whiteSpace=wrap;html=1;rounded=0;fillColor=#d5e8d4;strokeColor=#82b366;" vertex="1" parent="1">
          <mxGeometry x="63.129999999999995" y="5280" width="47.5" height="40" as="geometry" />
        </mxCell>
        <mxCell id="kke_oH9LQtOZnyXwMWGX-62" value="" style="edgeStyle=orthogonalEdgeStyle;rounded=0;orthogonalLoop=1;jettySize=auto;html=1;" edge="1" parent="1" source="kke_oH9LQtOZnyXwMWGX-59" target="kke_oH9LQtOZnyXwMWGX-61">
          <mxGeometry relative="1" as="geometry" />
        </mxCell>
        <mxCell id="kke_oH9LQtOZnyXwMWGX-59" value="GENERO&lt;div&gt;M OU F&lt;/div&gt;&lt;div&gt;&lt;br&gt;&lt;/div&gt;" style="whiteSpace=wrap;html=1;rounded=0;" vertex="1" parent="1">
          <mxGeometry x="26.879999999999995" y="5390" width="120" height="60" as="geometry" />
        </mxCell>
        <mxCell id="kke_oH9LQtOZnyXwMWGX-64" value="" style="edgeStyle=orthogonalEdgeStyle;rounded=0;orthogonalLoop=1;jettySize=auto;html=1;" edge="1" parent="1" source="kke_oH9LQtOZnyXwMWGX-61" target="kke_oH9LQtOZnyXwMWGX-63">
          <mxGeometry relative="1" as="geometry" />
        </mxCell>
        <mxCell id="kke_oH9LQtOZnyXwMWGX-61" value="INFORMA ONDE NASCEU&lt;div&gt;&lt;br&gt;&lt;/div&gt;" style="whiteSpace=wrap;html=1;rounded=0;" vertex="1" parent="1">
          <mxGeometry x="226.88" y="5390" width="120" height="60" as="geometry" />
        </mxCell>
        <mxCell id="kke_oH9LQtOZnyXwMWGX-66" value="" style="edgeStyle=orthogonalEdgeStyle;rounded=0;orthogonalLoop=1;jettySize=auto;html=1;" edge="1" parent="1" source="kke_oH9LQtOZnyXwMWGX-63">
          <mxGeometry relative="1" as="geometry">
            <mxPoint x="737.5" y="5420" as="targetPoint" />
          </mxGeometry>
        </mxCell>
        <mxCell id="kke_oH9LQtOZnyXwMWGX-72" value="" style="edgeStyle=orthogonalEdgeStyle;rounded=0;orthogonalLoop=1;jettySize=auto;html=1;" edge="1" parent="1" source="kke_oH9LQtOZnyXwMWGX-63" target="kke_oH9LQtOZnyXwMWGX-71">
          <mxGeometry relative="1" as="geometry" />
        </mxCell>
        <mxCell id="kke_oH9LQtOZnyXwMWGX-63" value="GENERO" style="rhombus;whiteSpace=wrap;html=1;rounded=0;" vertex="1" parent="1">
          <mxGeometry x="446.88" y="5380" width="80" height="80" as="geometry" />
        </mxCell>
        <mxCell id="kke_oH9LQtOZnyXwMWGX-67" value="FEMININO" style="text;html=1;align=center;verticalAlign=middle;whiteSpace=wrap;rounded=0;" vertex="1" parent="1">
          <mxGeometry x="587.5" y="5390" width="60" height="30" as="geometry" />
        </mxCell>
        <mxCell id="kke_oH9LQtOZnyXwMWGX-68" value="MASCULINO&lt;div&gt;&lt;br&gt;&lt;/div&gt;" style="text;html=1;align=center;verticalAlign=middle;whiteSpace=wrap;rounded=0;" vertex="1" parent="1">
          <mxGeometry x="495" y="5490" width="100" height="30" as="geometry" />
        </mxCell>
        <mxCell id="kke_oH9LQtOZnyXwMWGX-74" value="" style="edgeStyle=orthogonalEdgeStyle;rounded=0;orthogonalLoop=1;jettySize=auto;html=1;" edge="1" parent="1" source="kke_oH9LQtOZnyXwMWGX-71" target="kke_oH9LQtOZnyXwMWGX-73">
          <mxGeometry relative="1" as="geometry" />
        </mxCell>
        <mxCell id="kke_oH9LQtOZnyXwMWGX-76" value="" style="edgeStyle=orthogonalEdgeStyle;rounded=0;orthogonalLoop=1;jettySize=auto;html=1;" edge="1" parent="1" source="kke_oH9LQtOZnyXwMWGX-71" target="kke_oH9LQtOZnyXwMWGX-75">
          <mxGeometry relative="1" as="geometry" />
        </mxCell>
        <mxCell id="kke_oH9LQtOZnyXwMWGX-71" value="BRASILEIRO" style="rhombus;whiteSpace=wrap;html=1;rounded=0;" vertex="1" parent="1">
          <mxGeometry x="435.32" y="5520" width="103.12" height="100" as="geometry" />
        </mxCell>
        <mxCell id="kke_oH9LQtOZnyXwMWGX-73" value="&lt;span style=&quot;color: rgb(29, 33, 37); font-family: Barlow, sans-serif; font-size: 15px; text-align: left; background-color: rgb(255, 255, 255);&quot;&gt;Você é homem e brasileiro!&lt;/span&gt;" style="whiteSpace=wrap;html=1;rounded=0;" vertex="1" parent="1">
          <mxGeometry x="617.5" y="5540" width="120" height="60" as="geometry" />
        </mxCell>
        <mxCell id="kke_oH9LQtOZnyXwMWGX-75" value="&lt;span style=&quot;color: rgb(29, 33, 37); font-family: Barlow, sans-serif; font-size: 15px; text-align: left; background-color: rgb(255, 255, 255);&quot;&gt;Você é homem e estrangeiro&lt;/span&gt;" style="whiteSpace=wrap;html=1;rounded=0;" vertex="1" parent="1">
          <mxGeometry x="426.88" y="5680" width="120" height="60" as="geometry" />
        </mxCell>
        <mxCell id="kke_oH9LQtOZnyXwMWGX-77" value="SIM" style="text;html=1;align=center;verticalAlign=middle;whiteSpace=wrap;rounded=0;" vertex="1" parent="1">
          <mxGeometry x="540" y="5540" width="60" height="30" as="geometry" />
        </mxCell>
        <mxCell id="kke_oH9LQtOZnyXwMWGX-80" value="NÃO" style="text;html=1;align=center;verticalAlign=middle;whiteSpace=wrap;rounded=0;" vertex="1" parent="1">
          <mxGeometry x="486.88" y="5650" width="60" height="30" as="geometry" />
        </mxCell>
        <mxCell id="kke_oH9LQtOZnyXwMWGX-85" value="" style="edgeStyle=orthogonalEdgeStyle;rounded=0;orthogonalLoop=1;jettySize=auto;html=1;" edge="1" parent="1" source="kke_oH9LQtOZnyXwMWGX-81" target="kke_oH9LQtOZnyXwMWGX-84">
          <mxGeometry relative="1" as="geometry" />
        </mxCell>
        <mxCell id="kke_oH9LQtOZnyXwMWGX-90" style="edgeStyle=orthogonalEdgeStyle;rounded=0;orthogonalLoop=1;jettySize=auto;html=1;exitX=0.5;exitY=1;exitDx=0;exitDy=0;entryX=0;entryY=0.5;entryDx=0;entryDy=0;" edge="1" parent="1" source="kke_oH9LQtOZnyXwMWGX-81" target="kke_oH9LQtOZnyXwMWGX-82">
          <mxGeometry relative="1" as="geometry" />
        </mxCell>
        <mxCell id="kke_oH9LQtOZnyXwMWGX-81" value="BRASILEIRA" style="rhombus;whiteSpace=wrap;html=1;" vertex="1" parent="1">
          <mxGeometry x="737.5" y="5375" width="92.5" height="90" as="geometry" />
        </mxCell>
        <mxCell id="kke_oH9LQtOZnyXwMWGX-82" value="&lt;span style=&quot;color: rgb(29, 33, 37); font-family: Barlow, sans-serif; font-size: 15px; text-align: left; background-color: rgb(255, 255, 255);&quot;&gt;Você é mulher e estrangeira!&lt;/span&gt;" style="whiteSpace=wrap;html=1;" vertex="1" parent="1">
          <mxGeometry x="930" y="5510" width="120" height="60" as="geometry" />
        </mxCell>
        <mxCell id="kke_oH9LQtOZnyXwMWGX-84" value="&lt;span style=&quot;color: rgb(29, 33, 37); font-family: Barlow, sans-serif; font-size: 15px; text-align: left; background-color: rgb(255, 255, 255);&quot;&gt;Você é mulher e brasileira!&lt;/span&gt;" style="whiteSpace=wrap;html=1;" vertex="1" parent="1">
          <mxGeometry x="940" y="5390" width="120" height="60" as="geometry" />
        </mxCell>
        <mxCell id="kke_oH9LQtOZnyXwMWGX-88" value="SIM" style="text;html=1;align=center;verticalAlign=middle;whiteSpace=wrap;rounded=0;" vertex="1" parent="1">
          <mxGeometry x="850" y="5380" width="60" height="30" as="geometry" />
        </mxCell>
        <mxCell id="kke_oH9LQtOZnyXwMWGX-89" value="NÃO" style="text;html=1;align=center;verticalAlign=middle;whiteSpace=wrap;rounded=0;" vertex="1" parent="1">
          <mxGeometry x="840" y="5510" width="60" height="30" as="geometry" />
        </mxCell>
        <mxCell id="kke_oH9LQtOZnyXwMWGX-111" value="" style="edgeStyle=orthogonalEdgeStyle;rounded=0;orthogonalLoop=1;jettySize=auto;html=1;" edge="1" parent="1" source="kke_oH9LQtOZnyXwMWGX-109" target="kke_oH9LQtOZnyXwMWGX-110">
          <mxGeometry relative="1" as="geometry" />
        </mxCell>
        <mxCell id="kke_oH9LQtOZnyXwMWGX-109" value="INICIO" style="ellipse;whiteSpace=wrap;html=1;rounded=0;fillColor=#d5e8d4;strokeColor=#82b366;" vertex="1" parent="1">
          <mxGeometry x="71.25" y="5980" width="47.5" height="40" as="geometry" />
        </mxCell>
        <mxCell id="kke_oH9LQtOZnyXwMWGX-113" value="" style="edgeStyle=orthogonalEdgeStyle;rounded=0;orthogonalLoop=1;jettySize=auto;html=1;" edge="1" parent="1" source="kke_oH9LQtOZnyXwMWGX-110" target="kke_oH9LQtOZnyXwMWGX-112">
          <mxGeometry relative="1" as="geometry" />
        </mxCell>
        <mxCell id="kke_oH9LQtOZnyXwMWGX-110" value="&lt;span style=&quot;color: rgb(29, 33, 37); font-family: Barlow, sans-serif; font-size: 15px; text-align: left; background-color: rgb(255, 255, 255);&quot;&gt;Namekusei RECEBE GOLPE&lt;/span&gt;" style="whiteSpace=wrap;html=1;rounded=0;" vertex="1" parent="1">
          <mxGeometry x="162.5" y="5970" width="120" height="60" as="geometry" />
        </mxCell>
        <mxCell id="kke_oH9LQtOZnyXwMWGX-115" value="" style="edgeStyle=orthogonalEdgeStyle;rounded=0;orthogonalLoop=1;jettySize=auto;html=1;entryX=0;entryY=0.5;entryDx=0;entryDy=0;" edge="1" parent="1" source="kke_oH9LQtOZnyXwMWGX-112" target="kke_oH9LQtOZnyXwMWGX-139">
          <mxGeometry relative="1" as="geometry">
            <mxPoint x="562.5" y="6000" as="targetPoint" />
          </mxGeometry>
        </mxCell>
        <mxCell id="kke_oH9LQtOZnyXwMWGX-125" style="edgeStyle=orthogonalEdgeStyle;rounded=0;orthogonalLoop=1;jettySize=auto;html=1;exitX=0.5;exitY=0;exitDx=0;exitDy=0;entryX=0.75;entryY=0;entryDx=0;entryDy=0;" edge="1" parent="1" source="kke_oH9LQtOZnyXwMWGX-112" target="kke_oH9LQtOZnyXwMWGX-110">
          <mxGeometry relative="1" as="geometry" />
        </mxCell>
        <mxCell id="kke_oH9LQtOZnyXwMWGX-112" value="RETIROU PARTE DO CORPO?" style="whiteSpace=wrap;html=1;rounded=0;" vertex="1" parent="1">
          <mxGeometry x="362.5" y="5970" width="120" height="60" as="geometry" />
        </mxCell>
        <mxCell id="kke_oH9LQtOZnyXwMWGX-117" value="" style="edgeStyle=orthogonalEdgeStyle;rounded=0;orthogonalLoop=1;jettySize=auto;html=1;exitX=1;exitY=0.5;exitDx=0;exitDy=0;" edge="1" parent="1" source="kke_oH9LQtOZnyXwMWGX-139">
          <mxGeometry relative="1" as="geometry">
            <mxPoint x="682.5" y="6000" as="sourcePoint" />
            <mxPoint x="762.5" y="6000" as="targetPoint" />
          </mxGeometry>
        </mxCell>
        <mxCell id="kke_oH9LQtOZnyXwMWGX-120" value="SIM" style="text;html=1;align=center;verticalAlign=middle;whiteSpace=wrap;rounded=0;" vertex="1" parent="1">
          <mxGeometry x="493.75" y="5950" width="60" height="30" as="geometry" />
        </mxCell>
        <mxCell id="kke_oH9LQtOZnyXwMWGX-122" value="SIM" style="text;html=1;align=center;verticalAlign=middle;whiteSpace=wrap;rounded=0;" vertex="1" parent="1">
          <mxGeometry x="678.75" y="5960" width="60" height="30" as="geometry" />
        </mxCell>
        <mxCell id="kke_oH9LQtOZnyXwMWGX-126" value="NÃO" style="text;html=1;align=center;verticalAlign=middle;whiteSpace=wrap;rounded=0;" vertex="1" parent="1">
          <mxGeometry x="296.25" y="5950" width="60" height="30" as="geometry" />
        </mxCell>
        <mxCell id="kke_oH9LQtOZnyXwMWGX-137" value="NÃO" style="text;html=1;align=center;verticalAlign=middle;whiteSpace=wrap;rounded=0;" vertex="1" parent="1">
          <mxGeometry x="737.5" y="5930" width="60" height="30" as="geometry" />
        </mxCell>
        <mxCell id="kke_oH9LQtOZnyXwMWGX-149" style="edgeStyle=orthogonalEdgeStyle;rounded=0;orthogonalLoop=1;jettySize=auto;html=1;exitX=0.5;exitY=1;exitDx=0;exitDy=0;entryX=0;entryY=0.5;entryDx=0;entryDy=0;" edge="1" parent="1" source="kke_oH9LQtOZnyXwMWGX-139" target="kke_oH9LQtOZnyXwMWGX-148">
          <mxGeometry relative="1" as="geometry" />
        </mxCell>
        <mxCell id="kke_oH9LQtOZnyXwMWGX-139" value="HÁ ENERGIA?&lt;div&gt;&lt;br&gt;&lt;/div&gt;" style="rhombus;whiteSpace=wrap;html=1;" vertex="1" parent="1">
          <mxGeometry x="578.75" y="5960" width="80" height="80" as="geometry" />
        </mxCell>
        <mxCell id="kke_oH9LQtOZnyXwMWGX-144" value="NÃO" style="text;html=1;align=center;verticalAlign=middle;whiteSpace=wrap;rounded=0;" vertex="1" parent="1">
          <mxGeometry x="630" y="6070" width="60" height="30" as="geometry" />
        </mxCell>
        <mxCell id="kke_oH9LQtOZnyXwMWGX-151" style="edgeStyle=orthogonalEdgeStyle;rounded=0;orthogonalLoop=1;jettySize=auto;html=1;exitX=0.5;exitY=1;exitDx=0;exitDy=0;entryX=0.5;entryY=0;entryDx=0;entryDy=0;" edge="1" parent="1" source="kke_oH9LQtOZnyXwMWGX-145" target="kke_oH9LQtOZnyXwMWGX-148">
          <mxGeometry relative="1" as="geometry" />
        </mxCell>
        <mxCell id="kke_oH9LQtOZnyXwMWGX-269" style="edgeStyle=elbowEdgeStyle;rounded=0;orthogonalLoop=1;jettySize=auto;html=1;exitX=0.5;exitY=0;exitDx=0;exitDy=0;entryX=1;entryY=0.5;entryDx=0;entryDy=0;" edge="1" parent="1" source="kke_oH9LQtOZnyXwMWGX-145" target="kke_oH9LQtOZnyXwMWGX-267">
          <mxGeometry relative="1" as="geometry" />
        </mxCell>
        <mxCell id="kke_oH9LQtOZnyXwMWGX-145" value="KI &amp;lt;=5%" style="rhombus;whiteSpace=wrap;html=1;" vertex="1" parent="1">
          <mxGeometry x="767.5" y="5960" width="80" height="80" as="geometry" />
        </mxCell>
        <mxCell id="kke_oH9LQtOZnyXwMWGX-148" value="MORRE&amp;nbsp;&lt;div&gt;FIM&lt;/div&gt;" style="ellipse;whiteSpace=wrap;html=1;rounded=0;fillColor=#f8cecc;strokeColor=#b85450;" vertex="1" parent="1">
          <mxGeometry x="755" y="6100" width="105" height="100" as="geometry" />
        </mxCell>
        <mxCell id="kke_oH9LQtOZnyXwMWGX-154" value="" style="edgeStyle=orthogonalEdgeStyle;rounded=0;orthogonalLoop=1;jettySize=auto;html=1;" edge="1" parent="1" source="kke_oH9LQtOZnyXwMWGX-152">
          <mxGeometry relative="1" as="geometry">
            <mxPoint x="66.33333333333348" y="6430.000000000001" as="targetPoint" />
          </mxGeometry>
        </mxCell>
        <mxCell id="kke_oH9LQtOZnyXwMWGX-152" value="INICIO" style="ellipse;whiteSpace=wrap;html=1;rounded=0;fillColor=#d5e8d4;strokeColor=#82b366;" vertex="1" parent="1">
          <mxGeometry x="42.5" y="6320" width="47.5" height="40" as="geometry" />
        </mxCell>
        <mxCell id="kke_oH9LQtOZnyXwMWGX-191" value="" style="edgeStyle=orthogonalEdgeStyle;rounded=0;orthogonalLoop=1;jettySize=auto;html=1;" edge="1" parent="1" source="kke_oH9LQtOZnyXwMWGX-180" target="kke_oH9LQtOZnyXwMWGX-190">
          <mxGeometry relative="1" as="geometry" />
        </mxCell>
        <mxCell id="kke_oH9LQtOZnyXwMWGX-180" value="RECEBA N1&amp;nbsp;&lt;div&gt;&lt;br&gt;&lt;/div&gt;" style="whiteSpace=wrap;html=1;rounded=0;" vertex="1" parent="1">
          <mxGeometry x="-7.105427357601002e-15" y="6430" width="120" height="60" as="geometry" />
        </mxCell>
        <mxCell id="kke_oH9LQtOZnyXwMWGX-192" style="edgeStyle=orthogonalEdgeStyle;rounded=0;orthogonalLoop=1;jettySize=auto;html=1;exitX=1;exitY=0.5;exitDx=0;exitDy=0;entryX=1;entryY=0.25;entryDx=0;entryDy=0;" edge="1" parent="1" source="kke_oH9LQtOZnyXwMWGX-190" target="kke_oH9LQtOZnyXwMWGX-180">
          <mxGeometry relative="1" as="geometry">
            <Array as="points">
              <mxPoint x="150" y="6550" />
              <mxPoint x="150" y="6445" />
            </Array>
          </mxGeometry>
        </mxCell>
        <mxCell id="kke_oH9LQtOZnyXwMWGX-198" style="edgeStyle=orthogonalEdgeStyle;rounded=0;orthogonalLoop=1;jettySize=auto;html=1;exitX=0.5;exitY=1;exitDx=0;exitDy=0;" edge="1" parent="1" source="kke_oH9LQtOZnyXwMWGX-190">
          <mxGeometry relative="1" as="geometry">
            <mxPoint x="60" y="6590.333333333334" as="targetPoint" />
          </mxGeometry>
        </mxCell>
        <mxCell id="kke_oH9LQtOZnyXwMWGX-200" value="" style="edgeStyle=orthogonalEdgeStyle;rounded=0;orthogonalLoop=1;jettySize=auto;html=1;" edge="1" parent="1" source="kke_oH9LQtOZnyXwMWGX-190" target="kke_oH9LQtOZnyXwMWGX-199">
          <mxGeometry relative="1" as="geometry" />
        </mxCell>
        <mxCell id="kke_oH9LQtOZnyXwMWGX-190" value="&amp;lt;0 E &amp;gt;10" style="rhombus;whiteSpace=wrap;html=1;rounded=0;" vertex="1" parent="1">
          <mxGeometry x="19.999999999999993" y="6510" width="80" height="80" as="geometry" />
        </mxCell>
        <mxCell id="kke_oH9LQtOZnyXwMWGX-193" value="SIM" style="text;html=1;align=center;verticalAlign=middle;whiteSpace=wrap;rounded=0;" vertex="1" parent="1">
          <mxGeometry x="141.25" y="6490" width="60" height="30" as="geometry" />
        </mxCell>
        <mxCell id="kke_oH9LQtOZnyXwMWGX-202" value="" style="edgeStyle=orthogonalEdgeStyle;rounded=0;orthogonalLoop=1;jettySize=auto;html=1;" edge="1" parent="1" source="kke_oH9LQtOZnyXwMWGX-199" target="kke_oH9LQtOZnyXwMWGX-201">
          <mxGeometry relative="1" as="geometry" />
        </mxCell>
        <mxCell id="kke_oH9LQtOZnyXwMWGX-199" value="RECEBA N2&amp;nbsp;&lt;div&gt;&lt;br&gt;&lt;/div&gt;" style="whiteSpace=wrap;html=1;rounded=0;" vertex="1" parent="1">
          <mxGeometry x="-7.105427357601002e-15" y="6620" width="120" height="60" as="geometry" />
        </mxCell>
        <mxCell id="kke_oH9LQtOZnyXwMWGX-203" style="edgeStyle=orthogonalEdgeStyle;rounded=0;orthogonalLoop=1;jettySize=auto;html=1;exitX=1;exitY=0.5;exitDx=0;exitDy=0;entryX=1;entryY=0.5;entryDx=0;entryDy=0;" edge="1" parent="1" source="kke_oH9LQtOZnyXwMWGX-201" target="kke_oH9LQtOZnyXwMWGX-199">
          <mxGeometry relative="1" as="geometry">
            <Array as="points">
              <mxPoint x="150" y="6750" />
              <mxPoint x="150" y="6650" />
            </Array>
          </mxGeometry>
        </mxCell>
        <mxCell id="kke_oH9LQtOZnyXwMWGX-207" value="" style="edgeStyle=orthogonalEdgeStyle;rounded=0;orthogonalLoop=1;jettySize=auto;html=1;" edge="1" parent="1" source="kke_oH9LQtOZnyXwMWGX-201" target="kke_oH9LQtOZnyXwMWGX-206">
          <mxGeometry relative="1" as="geometry" />
        </mxCell>
        <mxCell id="kke_oH9LQtOZnyXwMWGX-201" value="&amp;lt;0 E &amp;gt;10" style="rhombus;whiteSpace=wrap;html=1;rounded=0;" vertex="1" parent="1">
          <mxGeometry x="19.999999999999993" y="6710" width="80" height="80" as="geometry" />
        </mxCell>
        <mxCell id="kke_oH9LQtOZnyXwMWGX-204" value="SIM" style="text;html=1;align=center;verticalAlign=middle;whiteSpace=wrap;rounded=0;" vertex="1" parent="1">
          <mxGeometry x="150" y="6680" width="60" height="30" as="geometry" />
        </mxCell>
        <mxCell id="kke_oH9LQtOZnyXwMWGX-209" value="" style="edgeStyle=orthogonalEdgeStyle;rounded=0;orthogonalLoop=1;jettySize=auto;html=1;" edge="1" parent="1" source="kke_oH9LQtOZnyXwMWGX-206" target="kke_oH9LQtOZnyXwMWGX-208">
          <mxGeometry relative="1" as="geometry" />
        </mxCell>
        <mxCell id="kke_oH9LQtOZnyXwMWGX-206" value="RECEBA FREQUENCIA" style="whiteSpace=wrap;html=1;rounded=0;" vertex="1" parent="1">
          <mxGeometry x="-7.105427357601002e-15" y="6820" width="120" height="60" as="geometry" />
        </mxCell>
        <mxCell id="kke_oH9LQtOZnyXwMWGX-210" style="edgeStyle=orthogonalEdgeStyle;rounded=0;orthogonalLoop=1;jettySize=auto;html=1;exitX=1;exitY=0.5;exitDx=0;exitDy=0;entryX=1;entryY=0.5;entryDx=0;entryDy=0;" edge="1" parent="1" source="kke_oH9LQtOZnyXwMWGX-208" target="kke_oH9LQtOZnyXwMWGX-206">
          <mxGeometry relative="1" as="geometry">
            <Array as="points">
              <mxPoint x="130" y="6960" />
              <mxPoint x="130" y="6850" />
            </Array>
          </mxGeometry>
        </mxCell>
        <mxCell id="kke_oH9LQtOZnyXwMWGX-222" value="" style="edgeStyle=orthogonalEdgeStyle;rounded=0;orthogonalLoop=1;jettySize=auto;html=1;" edge="1" parent="1" source="kke_oH9LQtOZnyXwMWGX-208" target="kke_oH9LQtOZnyXwMWGX-221">
          <mxGeometry relative="1" as="geometry" />
        </mxCell>
        <mxCell id="kke_oH9LQtOZnyXwMWGX-220" value="" style="edgeStyle=orthogonalEdgeStyle;rounded=0;orthogonalLoop=1;jettySize=auto;html=1;" edge="1" parent="1" source="kke_oH9LQtOZnyXwMWGX-208">
          <mxGeometry relative="1" as="geometry">
            <mxPoint x="60" y="7080.000000000001" as="targetPoint" />
          </mxGeometry>
        </mxCell>
        <mxCell id="kke_oH9LQtOZnyXwMWGX-236" value="" style="edgeStyle=orthogonalEdgeStyle;rounded=0;orthogonalLoop=1;jettySize=auto;html=1;" edge="1" parent="1" source="kke_oH9LQtOZnyXwMWGX-227" target="kke_oH9LQtOZnyXwMWGX-235">
          <mxGeometry relative="1" as="geometry" />
        </mxCell>
        <mxCell id="kke_oH9LQtOZnyXwMWGX-227" value="EXIBA-&amp;gt;&amp;nbsp;&lt;div&gt;Parabéns, aprovado&lt;/div&gt;" style="whiteSpace=wrap;html=1;rounded=0;fillColor=#d5e8d4;strokeColor=#82b366;" vertex="1" parent="1">
          <mxGeometry x="595" y="7090" width="120" height="60" as="geometry" />
        </mxCell>
        <mxCell id="kke_oH9LQtOZnyXwMWGX-208" value="&lt;span style=&quot;color: rgb(29, 33, 37); font-family: Barlow, sans-serif; font-size: 15px; text-align: left; background-color: rgb(255, 255, 255);&quot;&gt;&amp;lt;0 e &amp;gt;100&lt;/span&gt;" style="rhombus;whiteSpace=wrap;html=1;rounded=0;" vertex="1" parent="1">
          <mxGeometry x="19.999999999999993" y="6920" width="80" height="80" as="geometry" />
        </mxCell>
        <mxCell id="kke_oH9LQtOZnyXwMWGX-229" value="SIM" style="text;html=1;align=center;verticalAlign=middle;whiteSpace=wrap;rounded=0;" vertex="1" parent="1">
          <mxGeometry x="310" y="7090" width="60" height="30" as="geometry" />
        </mxCell>
        <mxCell id="kke_oH9LQtOZnyXwMWGX-231" value="SIM" style="text;html=1;align=center;verticalAlign=middle;whiteSpace=wrap;rounded=0;" vertex="1" parent="1">
          <mxGeometry x="510" y="7090" width="60" height="30" as="geometry" />
        </mxCell>
        <mxCell id="kke_oH9LQtOZnyXwMWGX-216" value="NÃO" style="text;html=1;align=center;verticalAlign=middle;whiteSpace=wrap;rounded=0;" vertex="1" parent="1">
          <mxGeometry x="71.25" y="6790" width="60" height="30" as="geometry" />
        </mxCell>
        <mxCell id="kke_oH9LQtOZnyXwMWGX-237" style="edgeStyle=orthogonalEdgeStyle;rounded=0;orthogonalLoop=1;jettySize=auto;html=1;exitX=1;exitY=0.25;exitDx=0;exitDy=0;entryX=0.5;entryY=1;entryDx=0;entryDy=0;" edge="1" parent="1" source="kke_oH9LQtOZnyXwMWGX-232" target="kke_oH9LQtOZnyXwMWGX-235">
          <mxGeometry relative="1" as="geometry" />
        </mxCell>
        <mxCell id="kke_oH9LQtOZnyXwMWGX-232" value="&lt;div&gt;EXIBA -&amp;gt; Infelizmente, reprovado&lt;/div&gt;" style="whiteSpace=wrap;html=1;rounded=0;fillColor=#f8cecc;strokeColor=#b85450;" vertex="1" parent="1">
          <mxGeometry x="294" y="7240" width="120" height="60" as="geometry" />
        </mxCell>
        <mxCell id="kke_oH9LQtOZnyXwMWGX-224" value="" style="edgeStyle=orthogonalEdgeStyle;rounded=0;orthogonalLoop=1;jettySize=auto;html=1;" edge="1" parent="1" source="kke_oH9LQtOZnyXwMWGX-221" target="kke_oH9LQtOZnyXwMWGX-223">
          <mxGeometry relative="1" as="geometry" />
        </mxCell>
        <mxCell id="kke_oH9LQtOZnyXwMWGX-234" style="edgeStyle=orthogonalEdgeStyle;rounded=0;orthogonalLoop=1;jettySize=auto;html=1;exitX=0.5;exitY=1;exitDx=0;exitDy=0;entryX=0.383;entryY=0;entryDx=0;entryDy=0;entryPerimeter=0;" edge="1" parent="1" source="kke_oH9LQtOZnyXwMWGX-223" target="kke_oH9LQtOZnyXwMWGX-232">
          <mxGeometry relative="1" as="geometry" />
        </mxCell>
        <mxCell id="kke_oH9LQtOZnyXwMWGX-221" value="CALCULE MEDIA NOTA" style="whiteSpace=wrap;html=1;rounded=0;" vertex="1" parent="1">
          <mxGeometry x="-7.105427357601002e-15" y="7090" width="120" height="60" as="geometry" />
        </mxCell>
        <mxCell id="kke_oH9LQtOZnyXwMWGX-226" value="" style="edgeStyle=orthogonalEdgeStyle;rounded=0;orthogonalLoop=1;jettySize=auto;html=1;" edge="1" parent="1" source="kke_oH9LQtOZnyXwMWGX-223" target="kke_oH9LQtOZnyXwMWGX-225">
          <mxGeometry relative="1" as="geometry" />
        </mxCell>
        <mxCell id="kke_oH9LQtOZnyXwMWGX-223" value="=&amp;gt;6" style="rhombus;whiteSpace=wrap;html=1;rounded=0;" vertex="1" parent="1">
          <mxGeometry x="220" y="7080" width="80" height="80" as="geometry" />
        </mxCell>
        <mxCell id="kke_oH9LQtOZnyXwMWGX-228" value="" style="edgeStyle=orthogonalEdgeStyle;rounded=0;orthogonalLoop=1;jettySize=auto;html=1;" edge="1" parent="1" source="kke_oH9LQtOZnyXwMWGX-225" target="kke_oH9LQtOZnyXwMWGX-227">
          <mxGeometry relative="1" as="geometry" />
        </mxCell>
        <mxCell id="kke_oH9LQtOZnyXwMWGX-233" style="edgeStyle=orthogonalEdgeStyle;rounded=0;orthogonalLoop=1;jettySize=auto;html=1;exitX=0.5;exitY=1;exitDx=0;exitDy=0;entryX=0.75;entryY=0;entryDx=0;entryDy=0;" edge="1" parent="1" source="kke_oH9LQtOZnyXwMWGX-225" target="kke_oH9LQtOZnyXwMWGX-232">
          <mxGeometry relative="1" as="geometry" />
        </mxCell>
        <mxCell id="kke_oH9LQtOZnyXwMWGX-225" value="FREQUÊNCIA&lt;div&gt;=&amp;gt;70%&amp;nbsp;&lt;/div&gt;" style="rhombus;whiteSpace=wrap;html=1;rounded=0;" vertex="1" parent="1">
          <mxGeometry x="380" y="7065" width="130" height="110" as="geometry" />
        </mxCell>
        <mxCell id="kke_oH9LQtOZnyXwMWGX-215" value="NÃO" style="text;html=1;align=center;verticalAlign=middle;whiteSpace=wrap;rounded=0;" vertex="1" parent="1">
          <mxGeometry x="71.25" y="6580" width="60" height="30" as="geometry" />
        </mxCell>
        <mxCell id="kke_oH9LQtOZnyXwMWGX-213" value="SIM" style="text;html=1;align=center;verticalAlign=middle;whiteSpace=wrap;rounded=0;" vertex="1" parent="1">
          <mxGeometry x="130" y="6900" width="60" height="30" as="geometry" />
        </mxCell>
        <mxCell id="kke_oH9LQtOZnyXwMWGX-241" style="edgeStyle=orthogonalEdgeStyle;rounded=0;orthogonalLoop=1;jettySize=auto;html=1;exitX=1;exitY=0.5;exitDx=0;exitDy=0;entryX=0;entryY=0.5;entryDx=0;entryDy=0;" edge="1" parent="1" source="kke_oH9LQtOZnyXwMWGX-235" target="kke_oH9LQtOZnyXwMWGX-240">
          <mxGeometry relative="1" as="geometry" />
        </mxCell>
        <mxCell id="kke_oH9LQtOZnyXwMWGX-242" style="edgeStyle=orthogonalEdgeStyle;rounded=0;orthogonalLoop=1;jettySize=auto;html=1;exitX=0.5;exitY=0;exitDx=0;exitDy=0;entryX=1;entryY=0.5;entryDx=0;entryDy=0;" edge="1" parent="1" source="kke_oH9LQtOZnyXwMWGX-235" target="kke_oH9LQtOZnyXwMWGX-180">
          <mxGeometry relative="1" as="geometry">
            <mxPoint x="829.9655172413793" y="6850.000000000001" as="targetPoint" />
          </mxGeometry>
        </mxCell>
        <mxCell id="kke_oH9LQtOZnyXwMWGX-235" value="CADASTRAR NOVO&amp;nbsp;&lt;div&gt;ALUNO?&lt;/div&gt;" style="rhombus;whiteSpace=wrap;html=1;rounded=0;" vertex="1" parent="1">
          <mxGeometry x="755" y="7057.5" width="150" height="125" as="geometry" />
        </mxCell>
        <mxCell id="kke_oH9LQtOZnyXwMWGX-240" value="FIM" style="ellipse;whiteSpace=wrap;html=1;rounded=0;fillColor=#f8cecc;strokeColor=#b85450;" vertex="1" parent="1">
          <mxGeometry x="982.5" y="7105" width="35" height="30" as="geometry" />
        </mxCell>
        <mxCell id="kke_oH9LQtOZnyXwMWGX-243" value="SIM" style="text;html=1;align=center;verticalAlign=middle;whiteSpace=wrap;rounded=0;" vertex="1" parent="1">
          <mxGeometry x="767" y="6970" width="60" height="30" as="geometry" />
        </mxCell>
        <mxCell id="kke_oH9LQtOZnyXwMWGX-244" value="NÃO" style="text;html=1;align=center;verticalAlign=middle;whiteSpace=wrap;rounded=0;" vertex="1" parent="1">
          <mxGeometry x="910" y="7090" width="60" height="30" as="geometry" />
        </mxCell>
        <mxCell id="kke_oH9LQtOZnyXwMWGX-248" style="edgeStyle=orthogonalEdgeStyle;rounded=0;orthogonalLoop=1;jettySize=auto;html=1;entryX=0.5;entryY=0;entryDx=0;entryDy=0;" edge="1" parent="1" source="kke_oH9LQtOZnyXwMWGX-246" target="7zDn4ZH_GtPBGwhXdW92-91">
          <mxGeometry relative="1" as="geometry" />
        </mxCell>
        <mxCell id="kke_oH9LQtOZnyXwMWGX-249" style="edgeStyle=orthogonalEdgeStyle;rounded=0;orthogonalLoop=1;jettySize=auto;html=1;exitX=0.5;exitY=0;exitDx=0;exitDy=0;entryX=0.75;entryY=0;entryDx=0;entryDy=0;" edge="1" parent="1" source="kke_oH9LQtOZnyXwMWGX-246" target="7zDn4ZH_GtPBGwhXdW92-78">
          <mxGeometry relative="1" as="geometry">
            <Array as="points">
              <mxPoint x="278" y="1860" />
              <mxPoint x="140" y="1860" />
            </Array>
          </mxGeometry>
        </mxCell>
        <mxCell id="kke_oH9LQtOZnyXwMWGX-246" value="&amp;lt;0 E &amp;gt;15" style="rhombus;whiteSpace=wrap;html=1;rounded=0;" vertex="1" parent="1">
          <mxGeometry x="238" y="1870" width="80" height="80" as="geometry" />
        </mxCell>
        <mxCell id="kke_oH9LQtOZnyXwMWGX-250" value="NÃO" style="text;html=1;align=center;verticalAlign=middle;whiteSpace=wrap;rounded=0;" vertex="1" parent="1">
          <mxGeometry x="281.25" y="1960" width="60" height="30" as="geometry" />
        </mxCell>
        <mxCell id="kke_oH9LQtOZnyXwMWGX-251" value="SIM" style="text;html=1;align=center;verticalAlign=middle;whiteSpace=wrap;rounded=0;" vertex="1" parent="1">
          <mxGeometry x="178" y="1830" width="60" height="30" as="geometry" />
        </mxCell>
        <mxCell id="kke_oH9LQtOZnyXwMWGX-253" style="edgeStyle=orthogonalEdgeStyle;rounded=0;orthogonalLoop=1;jettySize=auto;html=1;exitX=1;exitY=0.5;exitDx=0;exitDy=0;entryX=1;entryY=0.5;entryDx=0;entryDy=0;" edge="1" parent="1" source="kke_oH9LQtOZnyXwMWGX-252" target="7zDn4ZH_GtPBGwhXdW92-75">
          <mxGeometry relative="1" as="geometry">
            <Array as="points">
              <mxPoint x="166" y="1740" />
              <mxPoint x="180" y="1740" />
              <mxPoint x="180" y="1630" />
            </Array>
          </mxGeometry>
        </mxCell>
        <mxCell id="kke_oH9LQtOZnyXwMWGX-252" value="UF EXISTE?&amp;nbsp;" style="rhombus;whiteSpace=wrap;html=1;rounded=0;" vertex="1" parent="1">
          <mxGeometry x="56.25" y="1690" width="110" height="110" as="geometry" />
        </mxCell>
        <mxCell id="kke_oH9LQtOZnyXwMWGX-263" value="NÃO" style="text;html=1;align=center;verticalAlign=middle;whiteSpace=wrap;rounded=0;" vertex="1" parent="1">
          <mxGeometry x="268" y="7170" width="60" height="30" as="geometry" />
        </mxCell>
        <mxCell id="kke_oH9LQtOZnyXwMWGX-266" value="" style="edgeStyle=orthogonalEdgeStyle;rounded=0;orthogonalLoop=1;jettySize=auto;html=1;" edge="1" parent="1" source="kke_oH9LQtOZnyXwMWGX-267" target="kke_oH9LQtOZnyXwMWGX-268">
          <mxGeometry relative="1" as="geometry" />
        </mxCell>
        <mxCell id="kke_oH9LQtOZnyXwMWGX-267" value="REGENERA" style="whiteSpace=wrap;html=1;rounded=0;" vertex="1" parent="1">
          <mxGeometry x="647" y="5860" width="120" height="60" as="geometry" />
        </mxCell>
        <mxCell id="kke_oH9LQtOZnyXwMWGX-270" style="edgeStyle=elbowEdgeStyle;rounded=0;orthogonalLoop=1;jettySize=auto;html=1;exitX=0;exitY=0.5;exitDx=0;exitDy=0;entryX=0.25;entryY=0;entryDx=0;entryDy=0;" edge="1" parent="1" source="kke_oH9LQtOZnyXwMWGX-268" target="kke_oH9LQtOZnyXwMWGX-110">
          <mxGeometry relative="1" as="geometry">
            <Array as="points">
              <mxPoint x="190" y="5890" />
            </Array>
          </mxGeometry>
        </mxCell>
        <mxCell id="kke_oH9LQtOZnyXwMWGX-268" value="-10%KI" style="whiteSpace=wrap;html=1;rounded=0;" vertex="1" parent="1">
          <mxGeometry x="470" y="5860" width="120" height="60" as="geometry" />
        </mxCell>
      </root>
    </mxGraphModel>
  </diagram>
</mxfile>
